<?xml version="1.0" standalone="no"?>
<!DOCTYPE svg PUBLIC "-//W3C//DTD SVG 20010904//EN"
 "http://www.w3.org/TR/2001/REC-SVG-20010904/DTD/svg10.dtd">
<svg version="1.0" xmlns="http://www.w3.org/2000/svg"
 width="1200.000000pt" height="1200.000000pt" viewBox="0 0 1200.000000 1200.000000"
 preserveAspectRatio="xMidYMid meet">
<metadata>
Created by potrace 1.14, written by Peter Selinger 2001-2017
</metadata>
<g transform="translate(0.000000,1200.000000) scale(0.100000,-0.100000)"
fill="#000000" stroke="none">
<path d="M2779 8996 c-2 -2 -42 -6 -89 -10 -72 -5 -183 -21 -302 -41 -15 -3
-80 -19 -145 -36 -65 -17 -126 -32 -136 -34 -64 -14 -326 -118 -456 -182 -132
-65 -324 -174 -341 -193 -3 -3 -37 -27 -75 -53 -39 -26 -82 -57 -97 -70 -15
-12 -52 -42 -83 -67 -63 -50 -281 -262 -335 -326 -78 -91 -103 -123 -160 -199
-86 -115 -71 -93 -165 -247 -62 -103 -195 -367 -195 -388 0 -6 -5 -18 -10 -28
-6 -9 -26 -62 -46 -117 -31 -90 -40 -117 -47 -150 -2 -5 -5 -14 -9 -20 -5 -9
-12 -37 -22 -90 -2 -11 -9 -40 -16 -65 -7 -25 -14 -54 -16 -65 -8 -44 -14 -71
-21 -100 -4 -16 -8 -241 -9 -500 -2 -461 -2 -472 22 -585 13 -63 31 -142 39
-175 9 -33 18 -67 20 -75 39 -164 179 -494 292 -690 45 -79 135 -215 144 -218
5 -2 9 -8 9 -14 0 -8 46 -68 163 -213 45 -55 260 -270 331 -330 91 -77 192
-153 286 -214 47 -30 86 -59 88 -63 2 -4 10 -8 17 -8 8 0 33 -13 57 -29 63
-43 318 -163 433 -205 55 -21 107 -40 115 -43 8 -3 20 -7 27 -9 7 -1 43 -11
80 -23 37 -11 115 -32 173 -45 90 -20 133 -29 220 -42 46 -7 118 -16 196 -23
101 -10 6555 -9 6594 1 14 3 50 9 80 12 103 12 271 43 370 70 8 2 29 7 45 11
49 12 262 83 328 111 57 23 89 37 187 82 68 31 236 126 320 180 240 157 378
275 622 533 31 33 164 204 210 270 113 162 213 341 291 519 34 79 115 296 122
330 2 8 13 49 25 90 11 41 23 87 25 102 2 15 8 44 14 65 5 21 15 72 21 113 6
41 14 86 18 100 9 40 12 699 2 765 -10 73 -19 133 -25 165 -3 14 -8 41 -11 60
-4 19 -9 44 -11 55 -55 241 -125 442 -231 665 -25 52 -51 102 -58 110 -7 8
-13 18 -13 23 -1 21 -198 329 -238 372 -11 11 -24 28 -29 36 -8 15 -39 52
-114 139 -58 67 -234 240 -302 297 -15 12 -62 49 -105 82 -43 34 -83 66 -90
71 -6 5 -47 32 -90 60 -43 27 -87 57 -98 65 -10 8 -23 15 -29 15 -5 0 -17 6
-25 14 -9 8 -72 42 -141 76 -69 34 -134 66 -144 72 -20 11 -103 43 -228 88
-74 28 -266 84 -318 94 -14 3 -61 12 -104 21 -103 20 -119 23 -191 31 -33 3
-69 9 -80 12 -21 7 -6528 15 -6536 8z m6501 -638 c19 -4 51 -9 70 -11 86 -13
254 -49 311 -67 34 -11 65 -20 70 -20 4 0 20 -5 36 -12 15 -6 30 -12 33 -13
34 -9 75 -25 160 -63 25 -11 48 -21 52 -21 9 -3 118 -59 184 -96 72 -40 187
-118 284 -193 90 -69 315 -289 365 -357 17 -22 32 -42 36 -45 16 -14 132 -186
175 -260 71 -122 170 -330 156 -330 -4 0 -2 -4 3 -8 10 -7 41 -87 50 -127 3
-11 9 -31 15 -45 5 -14 14 -45 20 -70 6 -25 13 -53 15 -62 18 -67 40 -191 53
-303 12 -104 6 -544 -9 -585 -2 -6 -3 -12 -13 -80 -5 -30 -10 -62 -12 -70 -2
-8 -10 -42 -18 -75 -8 -33 -21 -81 -29 -107 -8 -27 -13 -48 -10 -48 3 0 1 -6
-5 -12 -6 -7 -11 -16 -11 -20 -1 -4 -4 -13 -6 -20 -2 -7 -16 -47 -31 -88 -31
-89 -135 -301 -187 -383 -20 -32 -37 -61 -37 -66 0 -5 -4 -11 -8 -13 -5 -1
-23 -25 -42 -53 -18 -27 -45 -64 -59 -82 -14 -17 -39 -48 -56 -69 -57 -73
-199 -216 -279 -282 -45 -37 -86 -72 -93 -78 -26 -25 -253 -174 -253 -167 0 4
-4 4 -8 -2 -4 -5 -18 -16 -32 -24 -44 -25 -218 -110 -232 -113 -7 -2 -15 -5
-18 -9 -5 -5 -263 -92 -310 -104 -14 -3 -38 -8 -55 -11 -16 -3 -43 -9 -60 -14
-33 -10 -148 -28 -240 -38 -84 -9 -6454 -9 -6540 1 -38 4 -92 11 -120 17 -27
5 -61 11 -75 14 -14 2 -56 12 -95 21 -38 9 -74 18 -80 19 -45 10 -147 44 -234
78 -138 54 -370 170 -379 191 -2 4 -8 7 -13 7 -11 0 -147 93 -177 121 -12 10
-24 19 -28 19 -21 0 -274 246 -370 358 -80 94 -244 341 -244 367 0 7 -4 15 -9
17 -8 3 -101 187 -101 200 0 3 -8 23 -17 44 -9 22 -17 41 -18 44 -1 3 -5 12
-8 20 -8 20 -39 112 -41 125 -1 6 -10 35 -18 65 -9 30 -24 91 -33 135 -16 77
-20 96 -30 160 -25 162 -26 485 0 665 61 428 238 834 512 1171 90 112 241 260
358 354 28 21 52 42 55 45 5 6 140 95 215 142 22 13 69 39 105 57 36 18 72 36
80 41 8 4 44 20 80 35 36 15 80 34 99 42 18 8 39 16 45 17 6 2 49 14 96 29
112 35 227 62 310 73 25 3 48 8 51 10 4 2 44 7 90 10 46 4 86 8 88 10 7 7
6433 -2 6471 -8z"/>
<path d="M3964 7576 c-3 -12 -17 -50 -31 -86 -21 -57 -33 -87 -63 -165 -4 -11
-22 -58 -39 -105 -18 -47 -40 -107 -51 -135 -22 -59 -132 -351 -219 -585 -34
-91 -66 -174 -70 -185 -12 -27 -65 -169 -67 -175 0 -3 -5 -16 -11 -30 -6 -14
-18 -45 -26 -70 -9 -25 -55 -146 -102 -270 -48 -124 -88 -229 -89 -235 -2 -5
-6 -17 -9 -25 -3 -8 -29 -78 -58 -155 -28 -77 -57 -153 -64 -170 -7 -16 -24
-61 -38 -100 -14 -38 -30 -81 -35 -95 -6 -14 -27 -70 -47 -125 -20 -55 -41
-109 -46 -120 -10 -24 -62 -162 -99 -266 l-27 -76 400 1 399 1 24 65 c13 36
23 65 22 65 -1 0 31 98 71 218 l73 217 617 0 618 0 27 -82 c15 -46 31 -92 36
-103 5 -11 11 -29 13 -40 5 -20 75 -224 103 -301 l15 -41 409 0 408 0 -18 51
c-10 28 -22 62 -28 76 -12 29 -25 63 -26 70 -1 3 -14 37 -30 77 -15 40 -27 74
-25 75 1 2 -7 21 -18 43 -12 22 -21 42 -21 45 -1 8 -99 272 -119 320 -3 8 -7
20 -8 25 -2 6 -14 39 -28 75 -14 36 -37 97 -52 135 -14 39 -32 86 -40 105 -33
84 -68 175 -70 185 -1 5 -9 27 -19 47 -9 21 -16 42 -16 48 0 6 -4 18 -9 28
-14 28 -28 63 -51 127 -11 33 -25 69 -30 80 -4 11 -23 58 -40 105 -17 47 -35
94 -40 105 -4 11 -13 34 -18 50 -6 17 -52 138 -102 270 -50 132 -113 301 -141
375 -27 74 -54 144 -59 155 -5 11 -23 58 -40 105 -17 47 -35 94 -40 105 -13
29 -24 69 -22 77 1 3 -5 12 -13 18 -8 7 -15 20 -15 30 0 10 -8 35 -17 56 -9
22 -24 59 -33 84 l-16 45 -417 1 c-414 1 -417 1 -423 -20z m461 -901 c20 -60
39 -117 42 -125 3 -8 7 -19 9 -25 1 -5 28 -84 59 -175 31 -91 58 -170 59 -177
1 -7 5 -16 9 -19 4 -4 7 -16 7 -26 0 -10 4 -26 10 -36 9 -16 170 -492 170
-503 0 -3 -184 -5 -410 -5 -225 1 -410 1 -410 2 0 1 49 147 55 162 2 7 5 16 6
20 1 4 19 57 41 117 21 61 41 121 44 134 3 13 12 37 20 52 8 16 14 31 14 34 1
3 2 10 5 17 2 7 33 101 69 208 125 373 156 463 161 458 2 -2 20 -52 40 -113z"/>
<path d="M7800 7428 c-91 -94 -187 -192 -213 -220 l-48 -49 93 -90 c51 -50
167 -161 256 -247 265 -254 332 -319 332 -324 0 -2 -447 -4 -992 -3 -546 0
-999 -1 -1005 -3 -10 -3 -13 -222 -13 -1048 l0 -1044 53 -1 c28 0 113 0 187 1
157 1 129 1 257 -1 55 -1 105 1 110 4 5 3 8 330 8 729 -1 398 0 728 2 734 3 7
210 11 694 11 l691 0 -153 -149 c-84 -81 -153 -148 -154 -148 0 0 -83 -80
-184 -178 l-183 -177 114 -117 c62 -64 152 -156 199 -205 47 -48 93 -94 103
-102 15 -13 82 51 716 690 l699 704 -537 538 c-525 526 -860 861 -865 863 -1
1 -76 -75 -167 -168z"/>
</g>
</svg>
