<?xml version="1.0" encoding="utf-8"?>
<!-- Generator: Adobe Illustrator 26.3.1, SVG Export Plug-In . SVG Version: 6.00 Build 0)  -->
<svg version="1.1" id="Camada_1" xmlns="http://www.w3.org/2000/svg" xmlns:xlink="http://www.w3.org/1999/xlink" x="0px" y="0px"
	 viewBox="0 0 1553 925" style="enable-background:new 0 0 1553 925;" xml:space="preserve">
<style type="text/css">
	.st0{fill:#FFFFFF;}
</style>
<path class="st0" d="M225.7,449.6L282,328.4h15.2l56.2,121.2h-17.6l-16.5-36.4h-60.5l-16.3,36.4H225.7z M264.5,400.3h49l-24-52.9
	h-1.1L264.5,400.3z"/>
<path class="st0" d="M381.8,449.6V328.4h66.8c15.6,0,26.4,4.3,34,12.2c6.1,6.4,9.4,14.9,9.3,23.8c0,16.3-11.1,29.1-28.2,33.8
	l29.9,51.4h-18.4l-27.9-49.4H398v49.4H381.8z M398,342.7V386h54.8c13.4,0,23.2-9.8,23.2-21.7c0-5.3-2.1-10.3-5.8-14.1
	c-5.9-5.9-13.2-7.4-21.5-7.4L398,342.7z"/>
<path class="st0" d="M511.6,328.4h110.3v14.3h-47v106.9h-16.1V342.7h-47.1V328.4z"/>
<path class="st0" d="M736.4,354c-7.2-6.5-22.6-15-44.9-15c-15.6,0-31.6,5.6-31.6,20.8c0,15.6,20,16.3,39.7,17.4
	c21.2,1.5,55.3,3.5,55.3,36c0,28.2-25.1,39.5-54.2,39.5c-30.8,0-50.5-12.8-63.7-24.9l9.8-11.1c10.2,9.5,27.1,22.3,54.2,22.3
	c20.6,0,37.7-7.4,37.7-23.8c0-18.2-18.6-21-39.2-22.5c-26.2-1.7-55.9-3.5-55.9-31.6c0-27.7,26.5-36,48.3-36c25.1,0,44.7,10,54,17.6
	L736.4,354z"/>
<path class="st0" d="M787.6,449.6V328.4h16.2v48.3h74.4v-48.3h16v121.2h-16V391h-74.4v58.7L787.6,449.6z"/>
<path class="st0" d="M923,449.6l56.2-121.2h15.2l56.2,121.2h-17.6l-16.5-36.4H956l-16.3,36.4H923z M961.8,400.3h49l-24-52.9h-1.1
	L961.8,400.3z"/>
<path class="st0" d="M1079.1,449.6V328.4h66.8c15.6,0,26.4,4.3,34,12.2c6.1,6.4,9.4,14.9,9.3,23.8c0,16.3-11.1,29.1-28.2,33.8
	l29.9,51.4h-18.4l-27.8-49.4h-49.4v49.4H1079.1z M1095.2,342.7V386h54.8c13.4,0,23.2-9.8,23.2-21.7c0-5.3-2.1-10.3-5.8-14.1
	c-6-5.9-13.2-7.4-21.5-7.4L1095.2,342.7z"/>
<path class="st0" d="M1290.7,393h-49v42.3h85.6v14.3h-101.7V328.4h97.5v14.3h-81.3v36h49L1290.7,393z"/>
<path class="st0" d="M232.9,523.4c2.3-0.1,4.3,1.7,4.4,4c-0.1,2.3-2,4.1-4.3,4c0,0-0.1,0-0.1,0c-2.2,0.1-4.2-1.6-4.3-3.8
	c0-0.1,0-0.1,0-0.2C228.6,525.2,230.6,523.4,232.9,523.4C232.9,523.4,232.9,523.4,232.9,523.4z M229.6,580.8v-39.1h6.6v39.1H229.6z"
	/>
<path class="st0" d="M251.1,580.8v-29.2c0-3.3-0.4-6.7-1.1-9.9h6.1c0.6,2,0.9,4,0.9,6c3.2-3.6,7.5-7.2,14.4-7.2
	c8.6,0,15.1,5.7,15.1,13.8v26.5h-6.7v-26.5c0-4.4-3.9-8-9.4-8c-5.8,0-9.8,3.5-12.7,6.7v27.8L251.1,580.8z"/>
<path class="st0" d="M295.6,541.8h7.7v-11.8h6.7v11.8h11.7v5.2H310v24.2c0,3.7,2.4,5.2,5.4,5.2c2.2,0,4.4-0.4,6.5-1.2l0.8,5.2
	c-1.6,1.1-5.6,1.9-8.6,1.9c-4.9,0-10.8-2.8-10.8-11.1v-24.2h-7.7L295.6,541.8z"/>
<path class="st0" d="M368.8,574.7c-5.2,4.8-12,7.4-19.1,7.3c-12.7,0-20.1-9.2-20.1-20.3c0-11.8,8.7-21.2,20.7-21.2
	c9.2,0,19.6,5.7,19.7,19.7c0,0.7,0,1.3-0.1,2h-33.6c0.2,7.7,5.2,13.9,14.1,13.9c5.2,0,10.3-2,14-5.7L368.8,574.7z M336.8,556.9h25.8
	c-0.2-7.3-6.8-10.8-12.7-10.8C343,546.1,338.4,550.8,336.8,556.9L336.8,556.9z"/>
<path class="st0" d="M382.1,580.8v-58.3h6.7v58.3H382.1z"/>
<path class="st0" d="M404.7,580.8v-58.3h6.7v58.3H404.7z"/>
<path class="st0" d="M430,523.4c2.3-0.1,4.3,1.7,4.4,4c-0.1,2.3-2,4.1-4.3,4c0,0-0.1,0-0.1,0c-2.2,0.1-4.2-1.6-4.3-3.8
	c0-0.1,0-0.1,0-0.2C425.7,525.2,427.7,523.4,430,523.4C430,523.4,430,523.4,430,523.4z M426.8,580.8v-39.1h6.6v39.1H426.8z"/>
<path class="st0" d="M478.2,575.6c-3.9,4.1-8.7,6.4-13.5,6.4c-10.6,0-19.5-8.2-19.5-20.6c0-12.7,9-20.9,19.9-20.9
	c6.7,0,11.8,4.6,13.7,7.2c0-2.1,0.3-4.1,0.8-6.1h6.2c-0.7,3.3-1,6.6-0.9,10v31.7c0,9-6.7,16.4-19.6,16.4c-8.9,0-14.2-3-17.7-6.7
	l4-3.9c2.7,2.8,6.8,5.1,13.7,5.1c8.5,0,12.9-4.8,12.9-10.8V575.6z M478.2,570.2v-17.7c-1.4-1.8-5.9-6.2-12.5-6.2
	c-7.2,0-13.2,5.9-13.2,15.1c0,8.9,5.8,14.8,12.8,14.8C469.9,576.2,474.5,573.8,478.2,570.2L478.2,570.2z"/>
<path class="st0" d="M535.8,574.7c-5.2,4.8-12,7.4-19.1,7.3c-12.7,0-20.1-9.2-20.1-20.3c0-11.8,8.7-21.2,20.7-21.2
	c9.2,0,19.6,5.7,19.7,19.7c0,0.7,0,1.3-0.1,2h-33.6c0.2,7.7,5.2,13.9,14.1,13.9c5.2,0,10.3-2,14-5.7L535.8,574.7z M503.8,556.9h25.8
	c-0.2-7.3-6.8-10.8-12.7-10.8C510,546.1,505.4,550.8,503.8,556.9L503.8,556.9z"/>
<path class="st0" d="M548.7,580.8v-29.2c0-3.3-0.4-6.7-1.1-9.9h6.1c0.6,2,0.9,4,0.9,6c3.2-3.6,7.5-7.2,14.4-7.2
	c8.6,0,15.1,5.7,15.1,13.8v26.5h-6.7v-26.5c0-4.4-3.9-8-9.4-8c-5.7,0-9.8,3.5-12.7,6.7v27.8L548.7,580.8z"/>
<path class="st0" d="M628.8,551.4c-3.3-3.3-7.8-5.1-12.4-5.1c-7.5,0-13.7,5.8-13.7,14.8s6.4,14.9,14.2,14.9
	c4.9-0.1,9.5-2.2,12.8-5.7l4.5,4.2c-4.7,4.9-11.1,7.6-17.9,7.5c-11.2,0-20.9-8.2-20.9-20.8c0-12.4,9.5-20.7,21-20.7
	c6.2,0,12.3,2.2,16.9,6.4L628.8,551.4z"/>
<path class="st0" d="M680.9,574.7c-5.2,4.8-12,7.4-19.1,7.3c-12.7,0-20.1-9.2-20.1-20.3c0-11.8,8.7-21.2,20.7-21.2
	c9.2,0,19.6,5.7,19.7,19.7c0,0.7,0,1.3-0.1,2h-33.6c0.2,7.7,5.2,13.9,14.1,13.9c5.2,0,10.3-2,14-5.7L680.9,574.7z M648.9,556.9h25.8
	c-0.2-7.3-6.8-10.8-12.7-10.8C655,546.1,650.4,550.8,648.9,556.9L648.9,556.9z"/>
<path class="st0" d="M690.5,591.7c3.8-1.1,10.2-4.5,10.2-9.2c0.1-0.8-0.3-1.6-1-1.9c-0.7,0.2-1.4,0.3-2.2,0.3
	c-2.9,0-5.2-1.9-5.2-4.5s2.2-4.5,5.2-4.5c4.7,0.1,8.5,4,8.4,8.8c0,0,0,0,0,0.1c0,9.2-7.8,13.3-13.4,15.2L690.5,591.7z"/>
<path class="st0" d="M731.4,541.8h7.6v-11.8h6.7v11.8h11.7v5.2h-11.7v24.2c0,3.7,2.4,5.2,5.4,5.2c2.2,0,4.4-0.4,6.5-1.2l0.8,5.2
	c-1.6,1.1-5.6,1.9-8.6,1.9c-4.9,0-10.8-2.8-10.8-11.1v-24.2h-7.7V541.8z"/>
<path class="st0" d="M804.6,574.7c-5.2,4.8-12,7.4-19.1,7.3c-12.7,0-20.1-9.2-20.1-20.3c0-11.8,8.7-21.2,20.7-21.2
	c9.2,0,19.6,5.7,19.7,19.7c0,0.7,0,1.3-0.1,2h-33.6c0.2,7.7,5.2,13.9,14.1,13.9c5.2,0,10.3-2,14-5.7L804.6,574.7z M772.6,556.9h25.8
	c-0.2-7.3-6.8-10.8-12.7-10.8C778.8,546.1,774.1,550.8,772.6,556.9L772.6,556.9z"/>
<path class="st0" d="M847.7,551.4c-3.3-3.3-7.8-5.1-12.4-5.1c-7.5,0-13.7,5.8-13.7,14.8s6.4,14.9,14.2,14.9
	c4.9-0.1,9.5-2.2,12.8-5.7l4.5,4.2c-4.7,4.9-11.2,7.6-17.9,7.5c-11.2,0-20.9-8.2-20.9-20.8c0-12.4,9.5-20.7,21-20.7
	c6.2-0.1,12.3,2.2,16.9,6.4L847.7,551.4z"/>
<path class="st0" d="M863.6,580.8v-58.3h6.6V547c2.8-3.1,7.4-6.5,13.2-6.5c9.3,0,15.6,5.7,15.6,13.8v26.5h-6.7v-26.5
	c0-4.4-3.9-8-9.5-8s-9.9,3.6-12.7,6.7v27.8L863.6,580.8z"/>
<path class="st0" d="M913.4,580.8v-29.2c0-3.3-0.4-6.7-1.1-9.9h6.1c0.6,2,0.9,4,0.9,6c3.2-3.6,7.5-7.2,14.4-7.2
	c8.6,0,15.1,5.7,15.1,13.8v26.5h-6.7v-26.5c0-4.4-3.9-8-9.4-8c-5.8,0-9.8,3.5-12.7,6.7v27.8L913.4,580.8z"/>
<path class="st0" d="M981,540.5c12.2,0,21,9.2,21,20.7c0,11.7-8.7,20.8-21,20.8c-11.3,0.3-20.6-8.6-20.9-19.9c0-0.3,0-0.6,0-1
	C960.1,549.7,968.8,540.5,981,540.5z M981,576.4c8.5,0,14.2-6.9,14.2-15.2c0-8.1-5.7-15.1-14.2-15.1s-14,7-14,15.1
	C967,569.5,972.6,576.4,981,576.4L981,576.4z"/>
<path class="st0" d="M1014.3,580.8v-58.3h6.7v58.3H1014.3z"/>
<path class="st0" d="M1054.3,540.5c12.2,0,21,9.2,21,20.7c0,11.7-8.7,20.8-21,20.8c-11.3,0.3-20.6-8.6-20.9-19.9c0-0.3,0-0.6,0-1
	C1033.4,549.7,1042.1,540.5,1054.3,540.5z M1054.3,576.4c8.5,0,14.2-6.9,14.2-15.2c0-8.1-5.7-15.1-14.2-15.1s-14,7-14,15.1
	C1040.3,569.5,1045.9,576.4,1054.3,576.4L1054.3,576.4z"/>
<path class="st0" d="M1117.2,575.6c-3.9,4.1-8.7,6.4-13.5,6.4c-10.6,0-19.5-8.2-19.5-20.6c0-12.7,9-20.9,19.9-20.9
	c6.7,0,11.8,4.6,13.7,7.2c0-2.1,0.3-4.1,0.8-6.1h6.2c-0.7,3.3-1,6.6-0.9,10v31.7c0,9-6.7,16.4-19.6,16.4c-8.9,0-14.2-3-17.8-6.7
	l4-3.9c2.8,2.8,6.8,5.1,13.8,5.1c8.5,0,12.9-4.8,12.9-10.8L1117.2,575.6z M1117.2,570.2v-17.7c-1.4-1.8-5.9-6.2-12.5-6.2
	c-7.2,0-13.2,5.9-13.2,15.1c0,8.9,5.8,14.8,12.8,14.8C1108.9,576.2,1113.4,573.8,1117.2,570.2L1117.2,570.2z"/>
<path class="st0" d="M1174.7,541.8l-27.3,56.5h-6.8l9.8-19.3l-16.7-37.2h7.5l12.7,29.9h0.3l13.9-29.9H1174.7z"/>
<path class="st0" d="M1174.9,591.7c3.8-1.1,10.2-4.5,10.2-9.2c0.1-0.8-0.3-1.6-1-1.9c-0.7,0.2-1.4,0.3-2.2,0.3
	c-2.9,0-5.2-1.9-5.2-4.5s2.2-4.5,5.2-4.5c4.7,0.1,8.5,4,8.4,8.7c0,0,0,0.1,0,0.1c0,9.2-7.7,13.3-13.4,15.2L1174.9,591.7z"/>
<path class="st0" d="M1220.3,545.6c5.4-3.3,11.7-5,18-5.1c8.6,0,17.6,2.9,17.6,11.6v21.7c0,2.1,0.2,5,1.2,7.1h-6.7
	c-0.7-1.7-1.1-3.6-1.2-5.5c-4.4,4.1-10.2,6.4-16.2,6.3c-9.6,0-15.6-5.6-15.6-13.4c0-7.1,6.4-12.8,18-12.8c4.8,0,10.8,1.2,13.8,4.1
	v-5.6c0-5.5-5.2-7.8-11.2-7.8c-5.5,0.1-10.8,1.8-15.3,4.8L1220.3,545.6z M1249.2,569.8v-4.9c-2.2-2.5-7.4-4.2-12.7-4.2
	c-8.8,0-12.3,3.3-12.3,7.6s3.6,7.8,10.2,7.8C1239.9,576,1245.2,573.7,1249.2,569.8L1249.2,569.8z"/>
<path class="st0" d="M1270.4,580.8v-29.2c0-3.3-0.4-6.7-1.2-9.9h6.2c0.6,2.2,0.9,4.5,0.9,6.7c2.7-4,6.2-8,11.9-8
	c2.4,0,4.7,0.7,5.9,2l-2.2,6.1c-1.6-1-3.4-1.6-5.2-1.6c-4.2,0-7.3,3.8-9.7,7.2v26.7L1270.4,580.8z"/>
<path class="st0" d="M1297.4,541.8h7.6v-11.8h6.7v11.8h11.7v5.2h-11.7v24.2c0,3.7,2.4,5.2,5.4,5.2c2.2,0,4.4-0.4,6.5-1.2l0.8,5.2
	c-1.6,1.1-5.6,1.9-8.6,1.9c-4.9,0-10.8-2.8-10.8-11.1v-24.2h-7.7L1297.4,541.8z"/>
</svg>
