<?xml version="1.0" encoding="utf-8"?>
<!-- Generator: Adobe Illustrator 26.3.1, SVG Export Plug-In . SVG Version: 6.00 Build 0)  -->
<svg version="1.1" id="Layer_2_00000138549600943974944690000017531031878673011378_"
	 xmlns="http://www.w3.org/2000/svg" xmlns:xlink="http://www.w3.org/1999/xlink" x="0px" y="0px" viewBox="0 0 227.1 67.2"
	 style="enable-background:new 0 0 227.1 67.2;" xml:space="preserve">
<style type="text/css">
	.st0{fill:#FFFFFF;}
</style>
<g id="Ebene_1">
	<g>
		<path class="st0" d="M36.7,9.1h-26V21h22.8v9H10.8v21.7H0V0h36.7V9.1z"/>
		<path class="st0" d="M38.1,17.6c2.7-3.4,7.2-5.1,13.6-5.1c4.2,0,7.9,0.8,11.2,2.5c3.3,1.7,4.9,4.8,4.9,9.4V42c0,1.2,0,2.7,0.1,4.4
			c0.1,1.3,0.3,2.2,0.6,2.7s0.8,0.9,1.5,1.2v1.5H59.1c-0.3-0.8-0.5-1.5-0.6-2.2c-0.1-0.7-0.2-1.5-0.3-2.3c-1.4,1.5-3,2.8-4.8,3.8
			c-2.2,1.2-4.6,1.9-7.3,1.9c-3.5,0-6.3-1-8.6-3c-2.3-2-3.4-4.8-3.4-8.4c0-4.7,1.8-8.1,5.5-10.2c2-1.1,4.9-2,8.8-2.5l3.4-0.4
			c1.8-0.2,3.2-0.5,4-0.9c1.4-0.6,2.1-1.6,2.1-2.9c0-1.6-0.5-2.6-1.6-3.2s-2.7-0.9-4.8-0.9c-2.4,0-4,0.6-5,1.8
			c-0.7,0.9-1.2,2-1.4,3.5h-9.7C35.5,22.5,36.5,19.8,38.1,17.6L38.1,17.6z M45.6,44.5c0.9,0.8,2.1,1.2,3.5,1.2c2.2,0,4.1-0.6,6-1.9
			s2.8-3.6,2.8-6.9v-3.7c-0.6,0.4-1.3,0.7-1.9,1c-0.7,0.2-1.5,0.5-2.7,0.7L51,35.2c-2.1,0.4-3.6,0.8-4.5,1.4
			c-1.5,0.9-2.3,2.3-2.3,4.2C44.1,42.5,44.6,43.7,45.6,44.5L45.6,44.5z"/>
		<path class="st0" d="M104.5,27.2H94.2c-0.2-1.4-0.7-2.7-1.4-3.9c-1.1-1.5-2.9-2.3-5.2-2.3c-3.4,0-5.7,1.7-6.9,5
			c-0.7,1.8-1,4.1-1,7.1s0.3,5.1,1,6.8c1.2,3.2,3.4,4.8,6.8,4.8c2.3,0,4-0.6,5-1.9s1.6-2.9,1.8-4.9h10.2c-0.2,3-1.3,5.9-3.3,8.7
			c-3.1,4.4-7.8,6.6-14,6.6s-10.7-1.8-13.6-5.5c-2.9-3.7-4.4-8.4-4.4-14.2c0-6.6,1.6-11.7,4.8-15.4c3.2-3.7,7.6-5.5,13.3-5.5
			c4.8,0,8.7,1.1,11.8,3.2C102.1,17.9,103.9,21.7,104.5,27.2L104.5,27.2z"/>
		<path class="st0" d="M125.3,44.6v7.5l-4.8,0.2c-4.7,0.2-8-0.7-9.7-2.5c-1.1-1.2-1.7-2.9-1.7-5.3V20.9h-5.3v-7.1h5.3V3.1h9.9v10.7
			h6.2v7.1h-6.2v20.2c0,1.6,0.2,2.5,0.6,2.9s1.6,0.6,3.7,0.6c0.3,0,0.6,0,1,0C124.7,44.7,125,44.6,125.3,44.6L125.3,44.6z"/>
		<path class="st0" d="M158.3,18.3c3.2,4.1,4.9,8.9,4.9,14.4s-1.6,10.4-4.9,14.4s-8.1,6-14.7,6s-11.5-2-14.7-6s-4.8-8.8-4.8-14.4
			s1.6-10.3,4.8-14.4c3.2-4.1,8.1-6.1,14.7-6.1S155.1,14.2,158.3,18.3z M143.5,20.7c-2.9,0-5.2,1-6.8,3.1s-2.4,5-2.4,8.9
			s0.8,6.8,2.4,8.9c1.6,2.1,3.8,3.1,6.8,3.1s5.2-1,6.8-3.1s2.4-5,2.4-8.9s-0.8-6.8-2.4-8.9C148.7,21.7,146.5,20.7,143.5,20.7z"/>
		<path class="st0" d="M184.2,22.7c-4,0-6.7,1.3-8.1,3.9c-0.8,1.5-1.2,3.8-1.2,6.8v18.3h-10.1V13.4h9.6v6.7c1.6-2.5,2.9-4.3,4-5.2
			c1.9-1.6,4.3-2.4,7.3-2.4c0.2,0,0.4,0,0.5,0c0.1,0,0.4,0,0.9,0.1v10.3c-0.6-0.1-1.2-0.1-1.7-0.1C184.9,22.7,184.5,22.7,184.2,22.7
			L184.2,22.7z"/>
		<path class="st0" d="M208.5,41.7l7.9-28.3h10.6l-13.1,37.7c-2.5,7.3-4.5,11.8-6,13.5c-1.5,1.8-4.4,2.6-8.9,2.6c-0.9,0-1.6,0-2.1,0
			c-0.5,0-1.4-0.1-2.4-0.1v-8l1.3,0.1c1,0,1.9,0,2.8-0.1s1.6-0.4,2.2-0.8c0.6-0.4,1.1-1.2,1.6-2.5s0.7-2,0.6-2.3l-14.1-40h11.1
			L208.5,41.7L208.5,41.7z"/>
	</g>
</g>
</svg>
