<?xml version="1.0" encoding="UTF-8"?><svg id="Layer_2" xmlns="http://www.w3.org/2000/svg" viewBox="0 0 227.09 67.25"><g id="Ebene_1"><g><path d="M36.74,9.11H10.76v11.92h22.75v9H10.76v21.73H0V0H36.74V9.11Z"/><path d="M38.13,17.58c2.65-3.38,7.19-5.06,13.64-5.06,4.2,0,7.92,.83,11.18,2.5,3.26,1.66,4.89,4.8,4.89,9.42v17.58c0,1.22,.02,2.7,.07,4.43,.07,1.31,.27,2.2,.6,2.67,.33,.47,.82,.86,1.48,1.16v1.48h-10.9c-.3-.77-.52-1.5-.63-2.18-.12-.68-.21-1.45-.28-2.32-1.38,1.5-2.98,2.78-4.78,3.83-2.16,1.24-4.59,1.86-7.31,1.86-3.47,0-6.33-.99-8.6-2.97-2.26-1.98-3.39-4.79-3.39-8.42,0-4.71,1.82-8.12,5.45-10.23,1.99-1.15,4.92-1.97,8.79-2.46l3.41-.42c1.85-.23,3.18-.53,3.97-.88,1.43-.61,2.14-1.56,2.14-2.85,0-1.57-.54-2.65-1.63-3.25s-2.69-.9-4.8-.9c-2.37,0-4.04,.59-5.03,1.76-.7,.87-1.17,2.04-1.41,3.52h-9.67c.21-3.35,1.15-6.1,2.81-8.26Zm7.45,26.93c.94,.77,2.09,1.16,3.45,1.16,2.16,0,4.14-.63,5.96-1.9,1.82-1.27,2.76-3.57,2.83-6.93v-3.73c-.63,.4-1.27,.72-1.92,.97-.65,.25-1.53,.47-2.65,.69l-2.25,.42c-2.11,.38-3.62,.83-4.54,1.37-1.55,.91-2.32,2.33-2.32,4.25,0,1.71,.48,2.94,1.44,3.69Z"/><path d="M104.49,27.18h-10.27c-.19-1.43-.67-2.72-1.44-3.87-1.12-1.55-2.87-2.32-5.24-2.32-3.38,0-5.68,1.68-6.93,5.03-.66,1.78-.98,4.15-.98,7.1s.33,5.07,.98,6.79c1.2,3.19,3.45,4.78,6.75,4.78,2.34,0,4.01-.63,4.99-1.9s1.58-2.91,1.79-4.92h10.23c-.23,3.05-1.34,5.93-3.3,8.65-3.14,4.38-7.79,6.57-13.96,6.57s-10.7-1.83-13.61-5.48c-2.91-3.66-4.36-8.4-4.36-14.24,0-6.59,1.6-11.71,4.82-15.36,3.21-3.66,7.64-5.48,13.29-5.48,4.8,0,8.74,1.08,11.79,3.23,3.06,2.16,4.87,5.96,5.43,11.43Z"/><path d="M125.32,44.61v7.49l-4.75,.18c-4.73,.16-7.97-.66-9.7-2.46-1.12-1.15-1.69-2.92-1.69-5.31V20.92h-5.34v-7.14h5.34V3.09h9.91V13.78h6.22v7.14h-6.22v20.25c0,1.57,.2,2.55,.6,2.94,.4,.39,1.62,.58,3.66,.58,.3,0,.63,0,.97-.02,.34-.01,.67-.03,1-.05Z"/><path d="M158.31,18.28c3.23,4.06,4.85,8.85,4.85,14.38s-1.62,10.44-4.85,14.43-8.14,5.99-14.73,5.99-11.5-2-14.73-5.99-4.85-8.81-4.85-14.43,1.62-10.32,4.85-14.38c3.23-4.05,8.14-6.08,14.73-6.08s11.5,2.03,14.73,6.08Zm-14.77,2.39c-2.93,0-5.19,1.04-6.77,3.11s-2.37,5.03-2.37,8.88,.79,6.81,2.37,8.9c1.58,2.09,3.84,3.13,6.77,3.13s5.18-1.04,6.75-3.13c1.57-2.09,2.36-5.05,2.36-8.9s-.79-6.8-2.36-8.88c-1.57-2.07-3.82-3.11-6.75-3.11Z"/><path d="M184.2,22.68c-4.03,0-6.74,1.31-8.12,3.94-.77,1.48-1.16,3.75-1.16,6.82v18.32h-10.09V13.43h9.56v6.68c1.55-2.55,2.89-4.3,4.04-5.24,1.88-1.57,4.31-2.36,7.31-2.36,.19,0,.35,0,.47,.02,.13,.01,.42,.03,.86,.05v10.27c-.63-.07-1.2-.12-1.69-.14-.49-.02-.89-.04-1.2-.04Z"/><path d="M208.53,41.7l7.91-28.27h10.65l-13.15,37.69c-2.53,7.26-4.54,11.77-6.01,13.52-1.48,1.75-4.43,2.62-8.86,2.62-.89,0-1.61,0-2.14-.02-.54-.01-1.35-.05-2.43-.12v-8.02l1.27,.07c.98,.05,1.92,.01,2.81-.11,.89-.12,1.64-.39,2.25-.81,.59-.4,1.13-1.23,1.63-2.5s.71-2.04,.62-2.32l-14.06-40.01h11.14l8.37,28.27Z"/></g></g></svg>