<?xml version="1.0" encoding="utf-8"?>
<!-- Generator: Adobe Illustrator 26.3.1, SVG Export Plug-In . SVG Version: 6.00 Build 0)  -->
<svg version="1.1" id="Layer_2_00000121264464411279590410000007200804226651885210_"
	 xmlns="http://www.w3.org/2000/svg" xmlns:xlink="http://www.w3.org/1999/xlink" x="0px" y="0px" viewBox="0 0 1041.4 596.5"
	 style="enable-background:new 0 0 1041.4 596.5;" xml:space="preserve">
<style type="text/css">
	.st0{fill:#FFFFFF;}
</style>
<g id="Layer_1-2">
	<g>
		<path class="st0" d="M684.8,489.2c-9.8,0-16.6,7.2-16.6,17.2s6.7,17.1,16.6,17.1s16.6-7.1,16.6-17.1S694.6,489.2,684.8,489.2z
			 M684.8,521.5c-8.6,0-14.4-6.4-14.4-15.1s5.8-15.2,14.4-15.2s14.4,6.5,14.4,15.2C699.1,515.2,693.4,521.5,684.8,521.5z"/>
		<path class="st0" d="M690.5,502.6c0-3.2-2.2-4.8-5.1-4.8h-5.8v16.7h2v-7.1h3.2l4.8,7.1h2.5l-5-7.3
			C689.3,506.6,690.5,504.9,690.5,502.6L690.5,502.6z M681.7,505.6v-6h3.4c2.9,0,3.3,1.7,3.3,3c0,2-1,3-3.3,3H681.7L681.7,505.6z"/>
		<path class="st0" d="M433,445.7v-32h-31.3v32h-29.4v43.5h29.4v53.4c0,29.7,24.2,53.9,53.9,53.9s53.9-24.2,53.9-53.9V521h-31.3v31
			L465,565.2h-18.8L433,552v-62.8h101.4v-43.5H433L433,445.7z"/>
		<polygon class="st0" points="130.9,413.7 130.9,596 162.2,596 238.7,596 238.7,564.7 162.2,564.7 162.2,520.5 238.7,520.5 
			238.7,489.2 162.2,489.2 162.2,444.9 238.7,444.9 238.7,413.7 162.2,413.7 		"/>
		<path class="st0" d="M106.1,488.7v-44l-31.1-31H37.5l-6.2,6.2l-6.2-6.2H0V596h25l6.2-6.2l3.5,3.5c5.7,2.1,11.9,3.3,18.3,3.3
			c29.6,0,53.6-24,53.6-53.6c0-15.1-6.3-28.7-16.3-38.4L106.1,488.7L106.1,488.7z M31.3,466.7c0-12,9.8-21.8,21.8-21.8
			s21.8,9.8,21.8,21.8s-9.8,21.8-21.8,21.8S31.3,478.8,31.3,466.7z M75.1,564.9H31.3v-44h43.8V564.9z"/>
		<path class="st0" d="M341.2,494.7l-0.8-0.8c-6.6-2.9-13.9-4.6-21.5-4.6c-29.5,0-53.6,24-53.6,53.6s24,53.6,53.6,53.6
			c7.7,0,14.9-1.7,21.5-4.6l0.8-0.8l4.9,4.9h26.4V489.2h-25.7L341.2,494.7L341.2,494.7z M340.9,542.9v22h-44v-22l0,0v-22h44V542.9
			L340.9,542.9L340.9,542.9z"/>
		<path class="st0" d="M534.5,595.6v0.3h106.1V489.2H534.5V595.6L534.5,595.6z M587.5,521.1c12,0,21.8,9.8,21.8,21.8
			s-9.8,21.8-21.8,21.8s-21.8-9.8-21.8-21.8S575.5,521.1,587.5,521.1z"/>
		<path class="st0" d="M423,82.6c0-1-0.1-2.2-0.2-3.3l6.2,10.6h1.5l6.1-10.5c-0.1,1.1-0.1,2.3-0.1,3.2v15h2.2V76.2H436l-6.3,10.7
			l-6.4-10.7h-2.6v21.4h2.2L423,82.6L423,82.6z"/>
		<polygon class="st0" points="408.6,97.6 410.9,97.6 410.9,78.3 417.1,78.3 417.1,76.2 401.8,76.2 401.8,78.3 408.6,78.3 		"/>
		<path class="st0" d="M372.4,76.2h-74.9V0h-31.3v182.3h106.1L372.4,76.2L372.4,76.2z M319.4,151c-12,0-21.8-9.8-21.8-21.8
			s9.8-21.8,21.8-21.8s21.8,9.8,21.8,21.8S331.4,151,319.4,151z"/>
		<path class="st0" d="M207.5,129.8v9.4l-13.3,13.3h-18.8l-13.3-13.3v-63h-31.3v53.6c0,29.7,24.2,53.9,53.9,53.9
			s53.9-24.2,53.9-53.9V76.2h-31.3L207.5,129.8L207.5,129.8z"/>
		<path class="st0" d="M31.3,166.6v-59.2h43.6v74.5h31.3v-52.2l0,0c0-0.2,0-0.4,0-0.5c0-29.3-23.8-53.1-53.1-53.1
			c-6.8,0-13.2,1.3-19.2,3.6l-2.6,2.6V69.9l0,0V0H0v181.9h31.3V166.6L31.3,166.6z"/>
		<polygon class="st0" points="335,389.1 373,389.1 373,357.8 335,357.8 335,238 373,238 373,206.7 265.2,206.7 265.2,238 
			303.7,238 303.7,357.8 265.2,357.8 265.2,389.1 303.7,389.1 		"/>
		<polygon class="st0" points="668.2,312.8 706.7,312.8 706.7,357.8 668.2,357.8 668.2,389.1 776,389.1 776,357.8 737.9,357.8 
			737.9,312.8 776,312.8 776,281.6 668.2,281.6 		"/>
		<path class="st0" d="M611,357.8h-45.3v-88.6H611V238h-45.2v-31.7h-31.3V238h-31.3v31.3h31.3v65.9c0,29.7,24.2,53.9,53.9,53.9
			s53.9-24.2,53.9-53.9v-21.6H611V357.8z"/>
		<path class="st0" d="M854.8,357.7l-22.6-76.1h-31.3v53.6c0,29.7,24.2,53.9,53.9,53.9s53.9-24.2,53.9-53.9v-53.6h-31.3L854.8,357.7
			L854.8,357.7z"/>
		<path class="st0" d="M401.8,389.1h107.8v-53.6c0-29.7-24.2-53.9-53.9-53.9s-53.9,24.2-53.9,53.9V389.1L401.8,389.1z M433.4,326
			l13-13h18.4l13,13v18.4l-13,13h-18.4l-13-13V326z"/>
		<polygon class="st0" points="731.3,269.2 744.3,256.2 744.3,237.8 731.3,224.8 712.9,224.8 699.9,237.8 699.9,256.2 712.9,269.2 
					"/>
		<path class="st0" d="M1009.8,281.3h-44.7l-31.6,31.6v44.6l31.6,31.6h44.7l31.6-31.6v-44.6L1009.8,281.3L1009.8,281.3z M987.5,357
			c-12,0-21.8-9.8-21.8-21.8s9.8-21.8,21.8-21.8s21.8,9.8,21.8,21.8S999.5,357,987.5,357z"/>
		<path class="st0" d="M162.2,312.8h45.3V342h31.3v-6.6c0-29.7-24.2-53.9-53.9-53.9c-7.3,0-14.2,1.5-20.5,4.1l-2.1,2.1l-6.2-6.2h-25
			V389h31.3v-76.2H162.2z"/>
		<polygon class="st0" points="6.2,298.2 0,304.4 0,358.1 31.6,389.7 76.2,389.7 103.2,362.7 81.1,340.6 63.3,358.4 44.5,358.4 
			31.3,345.1 31.3,340.3 31.3,326.4 31.3,251.2 44.5,238 63.3,238 81.1,255.8 103.2,233.7 76.2,206.7 31.6,206.7 0,238.3 0,292 		
			"/>
	</g>
</g>
</svg>
