<svg id="EN" xmlns="http://www.w3.org/2000/svg" viewBox="0 0 1138.65 253.34"><defs><style>.cls-1,.cls-2{fill:#1d1d1b;}.cls-2{stroke:#fff;stroke-width:2px;}.cls-3{fill:#fff;}.cls-4,.cls-5{fill:#010101;}.cls-5{fill-rule:evenodd;}</style></defs><path class="cls-1" d="M836.74,109.25a.66.66,0,0,1,.76-.75h14a.66.66,0,0,1,.73.72v2.35c0,.46-.19.69-.76.69H841.07v6.53h9.2c.49,0,.76.23.76.69v2.35c0,.46-.19.69-.76.69h-9.2V130h10.64c.46,0,.69.23.69.72V133c0,.49-.19.68-.73.68H837.5c-.53,0-.76-.22-.76-.68Z"/><path class="cls-1" d="M871.55,133.72h-2.7c-.57,0-.72-.26-.72-.72v-1.18l-.08,0a12.51,12.51,0,0,1-6.38,2.28c-5.13,0-5.62-3-5.62-7V115.87c0-.46.19-.76.72-.76h2.77c.5,0,.69.26.69.76v10.67c0,2.28.45,3.73,2.77,3.73,1.63,0,4.14-1.22,5.13-1.71V115.87c0-.46.15-.76.72-.76h2.7c.53,0,.72.26.72.76V133C872.27,133.5,872.08,133.72,871.55,133.72Z"/><path class="cls-1" d="M881.2,133c0,.46-.19.72-.72.72h-2.74c-.53,0-.72-.22-.72-.72V115.87c0-.5.19-.76.72-.76h2.7a.66.66,0,0,1,.76.76v1.67l.08.07a14.14,14.14,0,0,1,5.62-2.69c.49-.12.84,0,.91.64l.27,2.55c0,.53.07.76-.72.91a37.46,37.46,0,0,0-6.16,1.75Z"/><path class="cls-1" d="M897.92,134c-7.64,0-8.13-5.59-8.13-9.92,0-3.57.8-9.38,8.13-9.38s8.4,4.9,8.4,9.38C906.32,128.44,905.79,134,897.92,134Zm0-15.66c-3.23,0-4,2.06-4,6s.72,6,3.91,6c3.46,0,4.14-1.94,4.14-6S901.42,118.37,898,118.37Z"/><path class="cls-1" d="M918.9,134.07a15,15,0,0,1-4.75-.84l0,0V140c0,.41-.11.75-.72.75h-2.7c-.61,0-.72-.26-.72-.75V115.87c0-.5.19-.76.72-.76h2.7c.53,0,.68.3.68.76V117l.12.07a11.73,11.73,0,0,1,6-2.28c5,0,6.27,3.76,6.27,9.5C926.46,130.49,924.9,134.07,918.9,134.07Zm.3-15.47a13.62,13.62,0,0,0-5.09,1.71v9.5a15.36,15.36,0,0,0,4.37.65c2.73,0,3.68-1.41,3.68-6.2S921.21,118.6,919.2,118.6Z"/><path class="cls-1" d="M933.76,125.55c.11,3.84,1.48,4.91,4.59,4.91,1.37,0,3.5-.27,4.94-.42.69-.08.91-.08,1,.64l.23,1.26c.11.57,0,.87-.65,1.18a20.66,20.66,0,0,1-6.12.95c-7.25,0-8.32-4.64-8.32-9.58,0-3.68.69-9.76,8.09-9.76,6.81,0,8,4.4,8.14,8.51,0,1.36-.35,2.31-1.87,2.31Zm0-2.84h7.53c0-2.32-.61-4.56-3.77-4.56C934.74,118.15,934,119.86,933.79,122.71Z"/><path class="cls-1" d="M960.89,131.56a12,12,0,0,1-7,2.47c-4,0-5.2-2.21-5.2-5.4,0-4.44,2.36-6.34,7.14-6.34h4.87v-1c0-2.28-.84-3.08-4-3.08-1.25,0-3.64.19-5.16.34-.76.12-1,.08-1.07-.45l-.34-1.41c-.07-.49,0-.8.88-1.14a24,24,0,0,1,6.42-.83c6.57,0,7.37,2.69,7.37,7V129c0,1.56.19,1.6,1.37,1.75.56,0,.72.15.72.57v1.6c0,.41-.27.68-.92.79a9.22,9.22,0,0,1-1.78.19c-1.79,0-2.89-.53-3.27-2.31Zm-.23-6.31H956c-1.9,0-3.11.68-3.11,3.19,0,1.67.57,2.21,2.35,2.21a12.75,12.75,0,0,0,5.4-1.79Z"/><path class="cls-1" d="M985,133.72h-2.73c-.49,0-.72-.22-.72-.72l0-10.67c0-2.25-.54-3.73-2.74-3.73-1.52,0-4.18,1.22-5.21,1.71V133c0,.46-.19.72-.72.72h-2.69c-.54,0-.73-.22-.73-.72V115.87c0-.5.19-.76.73-.76h2.69c.53,0,.72.26.72.76V117s.08,0,.12,0a12.6,12.6,0,0,1,6.38-2.28c5.13,0,5.59,3.39,5.59,7.22v11C985.74,133.46,985.59,133.72,985,133.72Z"/><path class="cls-1" d="M846.94,148.23a20.86,20.86,0,0,1,6.95,1.1c.61.27.84.57.73,1.18l-.35,1.56c-.11.45-.3.64-1,.57a53,53,0,0,0-6.12-.5c-5.17,0-5.93,4.18-5.93,9.12s1,8.89,5.93,8.89a46.52,46.52,0,0,0,6.12-.49c.72-.08.87.11,1,.61l.31,1.44a.92.92,0,0,1-.65,1.22,21.82,21.82,0,0,1-7,1.14c-8.47,0-10.26-6.27-10.26-12.73S838.28,148.23,846.94,148.23Z"/><path class="cls-1" d="M865.48,174c-7.63,0-8.13-5.59-8.13-9.92,0-3.57.8-9.38,8.13-9.38s8.4,4.9,8.4,9.38C873.88,168.44,873.35,174,865.48,174Zm0-15.66c-3.23,0-3.95,2.06-3.95,6s.72,6,3.91,6c3.46,0,4.15-1.94,4.15-6S869,158.37,865.52,158.37Z"/><path class="cls-1" d="M904.13,173.72h-2.74c-.53,0-.72-.22-.72-.72V162.21c0-2.81-.68-3.61-2.58-3.61-1.41,0-3.69,1.1-4.87,1.71,0,.38,0,1.07,0,1.94V173c0,.46-.15.72-.72.72h-2.77c-.5,0-.65-.22-.65-.72V162c0-2.32-.61-3.42-2.51-3.42a13.27,13.27,0,0,0-4.9,1.71V173c0,.46-.19.72-.72.72h-2.74c-.49,0-.68-.22-.68-.72V155.87c0-.5.19-.76.68-.76H881a.66.66,0,0,1,.76.76V157l0,0a11.36,11.36,0,0,1,5.66-2.25c2.2,0,4,.46,5.21,2.66a11.77,11.77,0,0,1,6.68-2.66c5,0,5.51,3.27,5.51,7.07V173C904.81,173.46,904.66,173.72,904.13,173.72Z"/><path class="cls-1" d="M935.44,173.72H932.7c-.53,0-.72-.22-.72-.72V162.21c0-2.81-.68-3.61-2.58-3.61-1.41,0-3.69,1.1-4.87,1.71,0,.38,0,1.07,0,1.94V173c0,.46-.15.72-.72.72h-2.77c-.5,0-.65-.22-.65-.72V162c0-2.32-.61-3.42-2.51-3.42a13.33,13.33,0,0,0-4.9,1.71V173c0,.46-.19.72-.72.72h-2.74c-.49,0-.68-.22-.68-.72V155.87c0-.5.19-.76.68-.76h2.7a.66.66,0,0,1,.76.76V157l0,0a11.36,11.36,0,0,1,5.66-2.25c2.2,0,4,.46,5.21,2.66a11.79,11.79,0,0,1,6.68-2.66c5,0,5.51,3.27,5.51,7.07V173C936.12,173.46,936,173.72,935.44,173.72Z"/><path class="cls-1" d="M942.89,152.37c-2,0-2.24-1.1-2.24-2.2s.42-2.17,2.24-2.17,2.24.88,2.24,2.17S944.79,152.37,942.89,152.37Zm2,20.63c0,.42-.15.72-.68.72h-2.7c-.53,0-.76-.22-.76-.72V155.83c0-.53.23-.72.76-.72h2.7c.53,0,.68.3.68.72Z"/><path class="cls-1" d="M955.85,174a18.83,18.83,0,0,1-5.89-.84c-.76-.3-.91-.64-.8-1.25l.27-1.26c.11-.6.38-.64,1-.57a41.41,41.41,0,0,0,5.4.46c2.43,0,3.42-.65,3.42-2.17,0-1.74-.65-2.12-3-2.47-3.72-.53-7-1.33-7-5.47,0-3.76,2.89-5.73,7.14-5.73a19.11,19.11,0,0,1,5.78.83c.64.27.91.57.79,1.14l-.3,1.37c-.11.53-.34.61-1,.53-1.63-.19-3.76-.42-5.16-.42-2.43,0-3,.69-3,2.13s.91,1.67,3.23,2.05c3.61.54,6.87,1.26,6.87,5.78S959.76,174,955.85,174Z"/><path class="cls-1" d="M973.29,174a18.83,18.83,0,0,1-5.89-.84c-.76-.3-.91-.64-.8-1.25l.27-1.26c.11-.6.38-.64,1-.57a41.13,41.13,0,0,0,5.39.46c2.43,0,3.42-.65,3.42-2.17,0-1.74-.64-2.12-3-2.47-3.72-.53-7-1.33-7-5.47,0-3.76,2.89-5.73,7.14-5.73a19.11,19.11,0,0,1,5.78.83c.65.27.91.57.8,1.14l-.31,1.37c-.11.53-.34.61-1,.53-1.64-.19-3.76-.42-5.17-.42-2.43,0-3,.69-3,2.13s.91,1.67,3.23,2.05c3.61.54,6.87,1.26,6.87,5.78S977.2,174,973.29,174Z"/><path class="cls-1" d="M987.16,152.37c-2,0-2.24-1.1-2.24-2.2s.42-2.17,2.24-2.17,2.24.88,2.24,2.17S989.06,152.37,987.16,152.37Zm2,20.63c0,.42-.15.72-.68.72h-2.7c-.53,0-.76-.22-.76-.72V155.83c0-.53.23-.72.76-.72h2.7c.53,0,.68.3.68.72Z"/><path class="cls-1" d="M1001.64,174c-7.64,0-8.13-5.59-8.13-9.92,0-3.57.79-9.38,8.13-9.38s8.39,4.9,8.39,9.38C1010,168.44,1009.5,174,1001.64,174Zm0-15.66c-3.23,0-4,2.06-4,6s.73,6,3.92,6c3.45,0,4.14-1.94,4.14-6S1005.13,158.37,1001.68,158.37Z"/><path class="cls-1" d="M1029.11,173.72h-2.73c-.5,0-.73-.22-.73-.72l0-10.67c0-2.25-.53-3.73-2.73-3.73-1.52,0-4.18,1.22-5.21,1.71V173c0,.46-.19.72-.72.72h-2.7c-.53,0-.72-.22-.72-.72V155.87c0-.5.19-.76.72-.76h2.7c.53,0,.72.26.72.76V157s.08,0,.11,0a12.68,12.68,0,0,1,6.39-2.28c5.13,0,5.58,3.39,5.58,7.22v11C1029.83,173.46,1029.68,173.72,1029.11,173.72Z"/><polygon class="cls-1" points="1053.82 173.72 1053.82 99.36 1047.31 99.36 1047.31 173.72 1053.82 173.72 1053.82 173.72"/><path class="cls-1" d="M554.3,91.29S632.81,81.05,635,80.69a84.93,84.93,0,0,0,9.23-2,58.29,58.29,0,0,0,17.37-8c5-3.35,9.58-8.23,14.15-13.58A133.8,133.8,0,0,0,684.6,45V43a122.79,122.79,0,0,1-10.14,13.23A70.13,70.13,0,0,1,660.3,68.57a55.34,55.34,0,0,1-16.76,7.21,81.23,81.23,0,0,1-9,1.72c-2.18.31-4.42.55-6.58.78l-73.7,7.87Z"/><path class="cls-1" d="M659.59,78a55.21,55.21,0,0,1-16.87,6.2c-2.68.54-5.61,1-8.94,1.35-2,.22-3.93.39-5.9.56l-3.2.29c-24.06,2.17-48,4.48-70.38,6.67v5.13C576.86,95.48,601,92.58,625,89.84l3.21-.37c2-.22,3.94-.44,5.92-.7,3.42-.46,6.42-1,9.15-1.61a57.83,57.83,0,0,0,17.51-6.9c5.06-3.06,9.53-7.34,14.34-12.58a142.81,142.81,0,0,0,9.45-12.19V53.6A126.91,126.91,0,0,1,674,66.44,65.19,65.19,0,0,1,659.59,78Z"/><path class="cls-1" d="M673.33,76.77a61.35,61.35,0,0,1-14.87,10.35,61.2,61.2,0,0,1-17,5.17c-2.66.45-5.56.81-8.86,1.11L554.3,99.89V105l69.62-7.45,9-1c3.39-.4,6.35-.84,9-1.36a63.68,63.68,0,0,0,17.56-5.81c5.23-2.67,10.45-7.1,15.31-11.79a117.62,117.62,0,0,0,9.76-11.48V64.46A111.4,111.4,0,0,1,673.33,76.77Z"/><path class="cls-1" d="M654.39,103.36a32.66,32.66,0,0,1-14.48,4.74c-3.94.42-8,.63-11.89.82-1.9.1-3.79.19-5.68.31-11.84.68-23.46,1.44-35.31,2.22l-32.73,2.22v5.12l33.06-3.06c10.68-1,23.09-2.08,35.21-3.07l8.8-.69c3.44-.27,6.26-.55,8.87-.89a76.59,76.59,0,0,0,17.5-4.17,67.67,67.67,0,0,0,15.76-9,98.9,98.9,0,0,0,11.1-10.15V85.94c-4.21,4.14-6.63,6.46-11.24,9.52C667.86,99.11,658.48,101.06,654.39,103.36Z"/><path class="cls-1" d="M656.05,113.09a86.38,86.38,0,0,1-17,3c-2.63.23-5.47.41-8.68.54l-8.76.38c-21.77,1-43.43,2.16-67.31,3.44v5.1c22.81-1.78,45.16-3.51,67.51-5.11l8.73-.6c3.37-.22,6.17-.46,8.8-.76a89.1,89.1,0,0,0,17.42-3.54A69.05,69.05,0,0,0,673,107.85,96.56,96.56,0,0,0,684.6,99V98.9c-4.37,3.76-8.53,4.59-12.68,7.11A66.3,66.3,0,0,1,656.05,113.09Z"/><path class="cls-1" d="M655.25,121.57a103,103,0,0,1-17,2.38c-2.55.17-5.28.3-8.62.4l-8.67.31c-21.86.84-44,1.79-66.68,2.78v5.11c22.5-1.55,44.58-3.05,66.85-4.46l8.65-.52c3.4-.19,6.16-.39,8.7-.63a105.71,105.71,0,0,0,17.32-2.86,75,75,0,0,0,16.5-6.46,96,96,0,0,0,12.28-7.89v-2.19a95.31,95.31,0,0,1-13.21,8.17A72.56,72.56,0,0,1,655.25,121.57Z"/><path class="cls-1" d="M654.51,129.89a129.38,129.38,0,0,1-16.93,1.85c-2.47.13-5.11.22-8.56.3l-74.72,2v5.1l66.26-3.48,8.59-.44c3.35-.16,6.09-.32,8.62-.52a131.36,131.36,0,0,0,17.2-2.32,88.59,88.59,0,0,0,16.67-5.24,102.67,102.67,0,0,0,13-6.74v-2a101.41,101.41,0,0,1-13.73,6.8A85.11,85.11,0,0,1,654.51,129.89Z"/><path class="cls-1" d="M653.92,138.25c-9.17,1.23-18.61,1.37-27.74,1.51l-6.27.1-65.61,1.19v5.1L620,143.29l6.26-.26c9.19-.37,18.7-.75,28-2.24a103.49,103.49,0,0,0,16.83-4.1A113.23,113.23,0,0,0,684.6,131v-1.95a111,111,0,0,1-14.13,5.55A100.27,100.27,0,0,1,653.92,138.25Z"/><path class="cls-1" d="M653.4,146.65c-8.59.72-17.38.72-25.89.72-2.64,0-5.29,0-7.93,0-21.74.1-43.3.28-65.28.47V153c20.94-.71,43.14-1.46,65.35-2.13l7.91-.22c8.55-.22,17.39-.44,26.07-1.39a123.46,123.46,0,0,0,16.87-2.93,119.44,119.44,0,0,0,14.1-4.5v-1.87A116.39,116.39,0,0,1,670,144.19,120.9,120.9,0,0,1,653.4,146.65Z"/><path class="cls-1" d="M653.07,154.94c-3.58.14-7.46.21-11.86.21l-5,0-16.91-.21c-11.54-.09-23-.11-33.82-.12l-31.21,0v5.1l31.29-.83c10.74-.27,22.27-.54,33.77-.75l16.89-.22c4.64-.08,10.75-.22,17-.63s11.6-1,16.89-1.85c4.77-.77,9.63-1.81,14.51-3.06v-1.8c-5,1.16-10,2.09-14.81,2.74C664.53,154.24,659.06,154.7,653.07,154.94Z"/><path class="cls-1" d="M636,163l-16.85-.18c-21.5-.31-43-.71-64.89-1.12v5.1c20.92-.14,43.06-.3,64.9-.55l16.86-.25c5.68-.1,11.25-.2,16.87-.39,11.59-.38,22-1.2,31.67-2.49V161.3A312.07,312.07,0,0,1,652.88,163C647.27,163,641.65,163,636,163Z"/><polygon class="cls-1" points="684.6 171.96 554.3 168.63 554.3 173.72 684.6 173.72 684.6 171.96"/><path class="cls-1" d="M672.86,86.39c-5,4-8.77,6.85-14.83,9.28-5.27,2.11-10.94,3-17.41,3.87-4.17.58-8.52,1.45-12.68,1.73-1.71.12-3.42.23-5.13.37l-68.51,5v5.11l68.79-6.72,8.92-.84c3.31-.32,6.24-.69,9-1.13a70,70,0,0,0,17.56-5c5.34-2.38,10.75-6.27,15.77-10.52A113.6,113.6,0,0,0,684.6,77V75.2A128,128,0,0,1,672.86,86.39Z"/><path class="cls-1" d="M740,43s23.45,37.35,27.74,44.2S777,99.42,794.32,103.1s24.9,5.42,24.9,5.42v1.32s-11-2.35-25.21-5.52-20-4.23-26.45-13.23C762.18,83.61,740,51.78,740,51.78Z"/><path class="cls-1" d="M740,85.61S761.39,108,767.56,114.4c6.55,6.81,14.93,9.33,26.56,11.41,11.1,2,25.09,4.27,25.09,4.27v1.26s-13.14-2.16-25.09-4.2c-11.72-2-19.92-3.13-26.63-9.31-6-5.54-27.45-25.64-27.45-25.64Z"/><path class="cls-1" d="M740,95.69s20.3,18.85,27.52,25.29c6.64,5.93,12,7.77,26.63,10.36s25,4.2,25,4.2v1.33s-13.21-2.17-25.09-4.06-19.45-2.64-26.56-8.4c-8.2-6.65-27.52-22.56-27.52-22.56Z"/><path class="cls-1" d="M740,106.43s23.19,18.4,27.53,21.62,10.06,7,26.7,9.38,25,3.57,25,3.57v1.4s-15-2.17-25-3.43-17.66-1.8-26.63-7.77c-8.74-5.82-27.6-19.09-27.6-19.09Z"/><path class="cls-1" d="M740,116.76s23.26,15.49,27.67,17.94,9.57,6.44,26.56,8.61,25,3.15,25,3.15v1.33l-25-2.73c-11-1.19-18.45-2.8-26.63-7.28S740,122,740,122Z"/><path class="cls-1" d="M740,127.09s20.56,11.18,27.52,14.68c7.76,3.89,14.47,5.76,26.63,7.2,11.94,1.43,25,2.81,25,2.81V153s-12.09-1.3-25-2.52-17.38-1.78-26.63-5.88C759.29,141,740,132,740,132Z"/><path class="cls-1" d="M740,137.56s16.25,7,27.67,11.48c11.23,4.46,19.8,4.84,26.63,5.6,3,.34,24.88,2.59,24.88,2.59v1.26s-13.07-1.05-25-2.1-17-1.49-26.63-4.68-27.6-9.46-27.6-9.46Z"/><path class="cls-1" d="M740,148.23s16.41,5.08,27.59,8a151.56,151.56,0,0,0,26.63,4.48c5.17.35,25,2,25,2v1.19s-11.26-.76-25-1.75c-11.14-.79-20.08-1.63-26.63-3.08-7.26-1.6-27.52-6.41-27.52-6.41Z"/><path class="cls-1" d="M740,158.73s13.42,2.31,27.59,4.66c10.62,1.76,25,2.87,26.56,2.94s25,1.68,25,1.68v1.26s-15-.78-25-1.33c-10.41-.57-20.75-1.2-26.63-1.82-13.16-1.37-27.52-3.19-27.52-3.19Z"/><path class="cls-1" d="M740,169.6s21.16.79,27.59.93,51.58,2,51.58,2v1.23H740Z"/><path class="cls-1" d="M794.19,108.87c-19.15-4.13-23.48-11.13-26.7-15.47S740,53.65,740,53.65v8c1,1.25,21.7,28.4,27.52,35.89,6.56,8.44,16.84,10.36,26.63,12.46s25,5,25,5V113.9S799.14,109.94,794.19,108.87Z"/><path class="cls-1" d="M794.19,114.47c-15.73-3.08-22.09-8-26.7-14.07S740,64.29,740,64.29v7.57c1,1.13,21.85,25.9,27.45,32.32,6.54,7.49,15.66,9.45,26.7,11.48s25,4.69,25,4.69v-1.12S803.26,116.25,794.19,114.47Z"/><path class="cls-1" d="M794.19,120.28c-16.35-3.17-19.71-5.79-26.63-13.37-4.35-4.76-26.58-31-27.52-32.12v7s20.77,22.15,27.45,28.69c8.76,8.59,17,9.24,26.7,11s25,4.55,25,4.55v-1.19S800.73,121.55,794.19,120.28Z"/><polygon class="cls-2" points="722.61 174.72 722.61 98.36 608.46 98.36 608.46 174.72 722.61 174.72 722.61 174.72"/><polygon class="cls-3" points="666.77 109.19 670.74 109.19 667.54 111.69 668.79 115.64 665.6 113.21 662.41 115.64 663.67 111.69 660.44 109.19 664.4 109.19 665.6 105.34 666.77 109.19 666.77 109.19"/><polygon class="cls-3" points="666.91 160.12 670.89 160.12 667.69 162.52 668.93 166.32 665.74 163.98 662.55 166.32 663.81 162.52 660.58 160.12 664.54 160.12 665.74 156.41 666.91 160.12 666.91 160.12"/><polygon class="cls-3" points="679.51 156.75 683.49 156.75 680.28 159.14 681.53 162.95 678.34 160.6 675.15 162.95 676.41 159.14 673.17 156.75 677.14 156.75 678.34 153.03 679.51 156.75 679.51 156.75"/><polygon class="cls-3" points="679.51 112.59 683.49 112.59 680.28 114.99 681.53 118.8 678.34 116.45 675.15 118.8 676.41 114.99 673.17 112.59 677.14 112.59 678.34 108.88 679.51 112.59 679.51 112.59"/><polygon class="cls-3" points="688.86 121.94 692.83 121.94 689.63 124.34 690.87 128.15 687.69 125.8 684.5 128.15 685.76 124.34 682.53 121.94 686.49 121.94 687.69 118.23 688.86 121.94 688.86 121.94"/><polygon class="cls-3" points="688.86 147.52 692.83 147.52 689.63 149.93 690.87 153.73 687.69 151.38 684.5 153.73 685.76 149.93 682.53 147.52 686.49 147.52 687.69 143.81 688.86 147.52 688.86 147.52"/><polygon class="cls-3" points="692.36 134.54 696.34 134.54 693.14 136.94 694.38 140.75 691.2 138.4 688.01 140.75 689.26 136.94 686.03 134.54 689.99 134.54 691.2 130.83 692.36 134.54 692.36 134.54"/><polygon class="cls-3" points="653.93 112.62 657.9 112.62 654.7 115.03 655.94 118.83 652.75 116.48 649.57 118.83 650.82 115.03 647.6 112.62 651.55 112.62 652.75 108.91 653.93 112.62 653.93 112.62"/><polygon class="cls-3" points="644.84 121.97 648.81 121.97 645.61 124.37 646.85 128.18 643.67 125.83 640.48 128.18 641.73 124.37 638.5 121.97 642.47 121.97 643.67 118.26 644.84 121.97 644.84 121.97"/><polygon class="cls-3" points="641.46 134.57 645.44 134.57 642.24 136.97 643.48 140.78 640.29 138.44 637.1 140.78 638.36 136.97 635.13 134.57 639.09 134.57 640.29 130.86 641.46 134.57 641.46 134.57"/><polygon class="cls-3" points="644.84 147.55 648.81 147.55 645.61 149.96 646.85 153.76 643.67 151.42 640.48 153.76 641.73 149.96 638.5 147.55 642.47 147.55 643.67 143.84 644.84 147.55 644.84 147.55"/><polygon class="cls-3" points="654.06 156.78 658.03 156.78 654.83 159.18 656.07 162.98 652.89 160.64 649.7 162.98 650.96 159.18 647.73 156.78 651.69 156.78 652.89 153.06 654.06 156.78 654.06 156.78"/><path class="cls-4" d="M100.44,164.75H92.28a1.82,1.82,0,0,0-1.86,1.71v6.94a1.82,1.82,0,0,0,1.86,1.71h6.77a.53.53,0,0,1,.51.51v4.06a.53.53,0,0,1-.51.51H93.68a.53.53,0,0,1-.52-.51v-1.29H90.42v2.73a1.82,1.82,0,0,0,1.86,1.71h8.16a1.81,1.81,0,0,0,1.86-1.71v-6.94a1.81,1.81,0,0,0-1.86-1.71H93.68a.53.53,0,0,1-.52-.51V167.9a.53.53,0,0,1,.52-.51h5.37a.53.53,0,0,1,.51.51v1.29h2.74v-2.73a1.81,1.81,0,0,0-1.86-1.71Z"/><path class="cls-4" d="M116.19,164.75H108a1.81,1.81,0,0,0-1.85,1.71v14.66a1.81,1.81,0,0,0,1.85,1.71h8.16a1.81,1.81,0,0,0,1.86-1.71v-2.73h-2.73v1.29a.53.53,0,0,1-.52.51h-5.37a.53.53,0,0,1-.52-.51V167.9a.53.53,0,0,1,.52-.51h5.37a.53.53,0,0,1,.52.51v1.29h2.73v-2.73a1.81,1.81,0,0,0-1.86-1.71Z"/><polygon class="cls-4" points="121.57 182.83 124.3 182.83 124.3 164.75 121.57 164.75 121.57 182.83 121.57 182.83"/><polygon class="cls-4" points="140.05 167.38 140.05 164.75 128.18 164.75 128.18 182.83 140.05 182.83 140.05 180.19 130.91 180.19 130.91 175.11 137.32 175.11 137.32 172.47 130.91 172.47 130.91 167.38 140.05 167.38 140.05 167.38"/><polygon class="cls-4" points="152.97 164.75 152.97 177.77 146.59 164.75 143.57 164.75 143.57 182.83 146.3 182.83 146.3 169.97 152.6 182.83 155.7 182.83 155.7 164.75 152.97 164.75 152.97 164.75"/><path class="cls-4" d="M169.59,164.75h-8.16a1.81,1.81,0,0,0-1.85,1.71v14.66a1.81,1.81,0,0,0,1.85,1.71h8.16a1.81,1.81,0,0,0,1.86-1.71v-2.73h-2.73v1.29a.53.53,0,0,1-.52.51h-5.37a.53.53,0,0,1-.52-.51V167.9a.53.53,0,0,1,.52-.51h5.37a.53.53,0,0,1,.52.51v1.29h2.73v-2.73a1.81,1.81,0,0,0-1.86-1.71Z"/><polygon class="cls-4" points="186.84 167.38 186.84 164.75 174.97 164.75 174.97 182.83 186.84 182.83 186.84 180.19 177.7 180.19 177.7 175.11 184.11 175.11 184.11 172.47 177.7 172.47 177.7 167.38 186.84 167.38 186.84 167.38"/><polygon class="cls-4" points="229.61 164.75 217.73 164.75 217.73 167.38 222.3 167.38 222.3 182.83 225.04 182.83 225.04 167.38 229.61 167.38 229.61 164.75 229.61 164.75"/><polygon class="cls-4" points="244.38 167.38 244.38 164.75 232.5 164.75 232.5 182.83 244.38 182.83 244.38 180.19 235.24 180.19 235.24 175.11 241.64 175.11 241.64 172.47 235.24 172.47 235.24 167.38 244.38 167.38 244.38 167.38"/><path class="cls-4" d="M257.91,164.75h-8.16a1.81,1.81,0,0,0-1.86,1.71v14.66a1.81,1.81,0,0,0,1.86,1.71h8.16a1.82,1.82,0,0,0,1.86-1.71v-2.73H257v1.29a.53.53,0,0,1-.52.51h-5.37a.53.53,0,0,1-.51-.51V167.9a.53.53,0,0,1,.51-.51h5.37a.53.53,0,0,1,.52.51v1.29h2.74v-2.73a1.82,1.82,0,0,0-1.86-1.71Z"/><polygon class="cls-4" points="272.66 164.75 272.66 172.47 266.26 172.47 266.26 164.75 263.52 164.75 263.52 182.83 266.26 182.83 266.26 175.11 272.66 175.11 272.66 182.83 275.4 182.83 275.4 164.75 272.66 164.75 272.66 164.75"/><polygon class="cls-4" points="288.67 164.75 288.67 177.77 282.29 164.75 279.27 164.75 279.27 182.83 282.01 182.83 282.01 169.97 288.31 182.83 291.41 182.83 291.41 164.75 288.67 164.75 288.67 164.75"/><path class="cls-4" d="M305.3,164.75h-8.16a1.81,1.81,0,0,0-1.86,1.71v14.66a1.81,1.81,0,0,0,1.86,1.71h8.16a1.81,1.81,0,0,0,1.86-1.71V166.46a1.81,1.81,0,0,0-1.86-1.71Zm-.88,14.93a.53.53,0,0,1-.52.51h-5.37a.53.53,0,0,1-.51-.51V167.9a.53.53,0,0,1,.51-.51h5.37a.53.53,0,0,1,.52.51v11.78Z"/><polygon class="cls-4" points="314.01 180.19 314.01 164.75 311.27 164.75 311.27 182.83 323.15 182.83 323.15 180.19 314.01 180.19 314.01 180.19"/><path class="cls-4" d="M336.3,164.75h-8.16a1.81,1.81,0,0,0-1.86,1.71v14.66a1.81,1.81,0,0,0,1.86,1.71h8.16a1.81,1.81,0,0,0,1.86-1.71V166.46a1.81,1.81,0,0,0-1.86-1.71Zm-.88,14.93a.53.53,0,0,1-.51.51h-5.37a.53.53,0,0,1-.52-.51V167.9a.53.53,0,0,1,.52-.51h5.37a.53.53,0,0,1,.51.51v11.78Z"/><path class="cls-4" d="M352.05,164.75h-8.16a1.82,1.82,0,0,0-1.86,1.71v14.66a1.82,1.82,0,0,0,1.86,1.71h8.16a1.81,1.81,0,0,0,1.86-1.71v-8.65H348.1v2.64h3.07v4.57a.53.53,0,0,1-.51.51h-5.37a.53.53,0,0,1-.52-.51V167.9a.53.53,0,0,1,.52-.51h5.37a.53.53,0,0,1,.51.51v1.29h2.74v-2.73a1.81,1.81,0,0,0-1.86-1.71Z"/><polygon class="cls-4" points="370.34 164.75 367.4 164.75 363.68 173.81 359.96 164.75 357.05 164.75 362.31 177.2 362.31 182.83 365.05 182.83 365.05 177.2 370.34 164.75 370.34 164.75"/><path class="cls-4" d="M410.67,182.83h2.79L408,164.75h-2.71l-5.43,18.08h2.79l1.37-4.7h5.24l1.37,4.7Zm-5.83-7.39,1.86-6.38,1.83,6.38Z"/><polygon class="cls-4" points="443 164.75 431.12 164.75 431.12 167.38 435.69 167.38 435.69 182.83 438.43 182.83 438.43 167.38 443 167.38 443 164.75 443 164.75"/><path class="cls-4" d="M455.91,164.75h-8.16a1.82,1.82,0,0,0-1.86,1.71v6.94a1.82,1.82,0,0,0,1.86,1.71h6.77a.53.53,0,0,1,.52.51v4.06a.53.53,0,0,1-.52.51h-5.37a.53.53,0,0,1-.52-.51v-1.29h-2.74v2.73a1.82,1.82,0,0,0,1.86,1.71h8.16a1.81,1.81,0,0,0,1.86-1.71v-6.94a1.81,1.81,0,0,0-1.86-1.71h-6.76a.53.53,0,0,1-.52-.51V167.9a.53.53,0,0,1,.52-.51h5.37a.53.53,0,0,1,.52.51v1.29h2.73v-2.73a1.81,1.81,0,0,0-1.86-1.71Z"/><path class="cls-4" d="M457.76,80.56c0-3.4-3.07-6.24-6.79-6.24h-27.7c-3.73,0-6.8,2.84-6.8,6.24v20.89c0,3.4,3.07,6.24,6.8,6.24h22.67a1.54,1.54,0,0,1,1.63,1.45v10.37a1.55,1.55,0,0,1-1.63,1.46H426.58v-4.08H416.47v7.88c0,3.4,3.07,6.24,6.8,6.24H451c3.72,0,6.79-2.84,6.79-6.24V103.88c0-3.4-3.07-6.24-6.79-6.24H428.29a1.55,1.55,0,0,1-1.62-1.45V85.82a1.55,1.55,0,0,1,1.62-1.46h19.37v4.1h10.11V82.11h0V80.56Z"/><path class="cls-4" d="M457.76,80.56c0-3.4-3.07-6.24-6.79-6.24h-27.7c-3.73,0-6.8,2.84-6.8,6.24v20.89c0,3.4,3.07,6.24,6.8,6.24h22.67a1.54,1.54,0,0,1,1.63,1.45v10.37a1.55,1.55,0,0,1-1.63,1.46H426.58v-4.08H416.47v7.88c0,3.4,3.07,6.24,6.8,6.24H451c3.72,0,6.79-2.84,6.79-6.24V103.88c0-3.4-3.07-6.24-6.79-6.24H428.29a1.55,1.55,0,0,1-1.62-1.45V85.82a1.55,1.55,0,0,1,1.62-1.46h19.37v4.1h10.11V82.11h0V80.56Z"/><path class="cls-4" d="M285,107.69l-6.16-18.22-6.16,18.22Zm3.39,10H269.3L264.84,131H253.91l19.84-56.69H284L303.8,131H292.87l-4.46-13.28Z"/><path class="cls-4" d="M285,107.69l-6.16-18.22-6.16,18.22Zm3.39,10H269.3L264.84,131H253.91l19.84-56.69H284L303.8,131H292.87l-4.46-13.28Z"/><polygon class="cls-4" points="406.35 84.29 390.94 84.29 390.94 131.01 380.83 131.01 380.83 84.29 365.42 84.29 365.42 74.34 406.35 74.34 406.35 84.29 406.35 84.29"/><polygon class="cls-4" points="406.35 84.29 390.94 84.29 390.94 131.01 380.83 131.01 380.83 84.29 365.42 84.29 365.42 74.34 406.35 74.34 406.35 84.29 406.35 84.29"/><path class="cls-4" d="M346.09,97.64c0,1.13-.49,1.62-1.62,1.62H325.19V84.36h19.28a1.55,1.55,0,0,1,1.62,1.46V97.64Zm9.12-23.32h-41.3V131h10.21v-21.7h19.27c1.14,0,1.62.48,1.62,1.61V131h10.2V109.64a6.21,6.21,0,0,0-.12-1.24L351,104.28l4.12-4.13a6,6,0,0,0,.12-1.21V74.32Z"/><path class="cls-4" d="M346.09,97.64c0,1.13-.49,1.62-1.62,1.62H325.19V84.36h19.28a1.55,1.55,0,0,1,1.62,1.46V97.64Zm9.12-23.32h-41.3V131h10.21v-21.7h19.27c1.14,0,1.62.48,1.62,1.61V131h10.2V109.64a6.21,6.21,0,0,0-.12-1.24L351,104.28l4.12-4.13a6,6,0,0,0,.12-1.21V74.32Z"/><polygon class="cls-4" points="217.9 84.27 202.49 84.27 202.49 130.99 192.38 130.99 192.38 84.27 176.97 84.27 176.97 74.32 217.9 74.32 217.9 84.27 217.9 84.27"/><polygon class="cls-4" points="217.9 84.27 202.49 84.27 202.49 130.99 192.38 130.99 192.38 84.27 176.97 84.27 176.97 74.32 217.9 74.32 217.9 84.27 217.9 84.27"/><path class="cls-4" d="M131.75,80.56c0-3.4-3.08-6.24-6.8-6.24H97.25c-3.72,0-6.81,2.84-6.81,6.24v20.89c0,3.4,3.09,6.24,6.81,6.24h22.68a1.53,1.53,0,0,1,1.61,1.45v10.37a1.54,1.54,0,0,1-1.61,1.46H100.56v-4.08H90.45V121h0v3.8c0,3.4,3.09,6.24,6.81,6.24H125c3.72,0,6.8-2.84,6.8-6.24V103.88c0-3.4-3.08-6.24-6.8-6.24H102.27a1.55,1.55,0,0,1-1.62-1.45V85.82a1.55,1.55,0,0,1,1.62-1.46h19.37v4.1h10.11v-7.9Z"/><path class="cls-4" d="M131.75,80.56c0-3.4-3.08-6.24-6.8-6.24H97.25c-3.72,0-6.81,2.84-6.81,6.24v20.89c0,3.4,3.09,6.24,6.81,6.24h22.68a1.53,1.53,0,0,1,1.61,1.45v10.37a1.54,1.54,0,0,1-1.61,1.46H100.56v-4.08H90.45V121h0v3.8c0,3.4,3.09,6.24,6.81,6.24H125c3.72,0,6.8-2.84,6.8-6.24V103.88c0-3.4-3.08-6.24-6.8-6.24H102.27a1.55,1.55,0,0,1-1.62-1.45V85.82a1.55,1.55,0,0,1,1.62-1.46h19.37v4.1h10.11v-7.9Z"/><polygon class="cls-5" points="163.28 94.55 161.26 94.55 161.26 114.77 163.28 114.77 163.28 94.55 163.28 94.55"/><polygon class="cls-5" points="172.38 103.64 152.15 103.64 152.15 105.68 172.38 105.68 172.38 103.64 172.38 103.64"/><polygon class="cls-5" points="152.15 103.64 161.26 103.64 161.26 94.55 163.28 94.55 163.28 103.64 172.38 103.64 172.38 105.68 163.28 105.68 163.28 114.77 161.26 114.77 161.26 105.68 152.15 105.68 152.15 103.64 152.15 103.64"/><polygon class="cls-5" points="233.64 94.55 231.62 94.55 231.62 114.77 233.64 114.77 233.64 94.55 233.64 94.55"/><polygon class="cls-5" points="242.74 103.64 222.52 103.64 222.52 105.68 242.74 105.68 242.74 103.64 242.74 103.64"/><polygon class="cls-5" points="222.52 103.64 231.62 103.64 231.62 94.55 233.64 94.55 233.64 103.64 242.74 103.64 242.74 105.68 233.64 105.68 233.64 114.77 231.62 114.77 231.62 105.68 222.52 105.68 222.52 103.64 222.52 103.64"/><path class="cls-4" d="M457.76,80.56c0-3.4-3.07-6.24-6.79-6.24h-27.7c-3.73,0-6.8,2.84-6.8,6.24v20.89c0,3.4,3.07,6.24,6.8,6.24h22.67a1.54,1.54,0,0,1,1.63,1.45v10.37a1.55,1.55,0,0,1-1.63,1.46H426.58v-4.08H416.47v7.88c0,3.4,3.07,6.24,6.8,6.24H451c3.72,0,6.79-2.84,6.79-6.24V103.88c0-3.4-3.07-6.24-6.79-6.24H428.29a1.55,1.55,0,0,1-1.62-1.45V85.82a1.55,1.55,0,0,1,1.62-1.46h19.37v4.1h10.11V82.11h0V80.56Z"/><path class="cls-4" d="M457.76,80.56c0-3.4-3.07-6.24-6.79-6.24h-27.7c-3.73,0-6.8,2.84-6.8,6.24v20.89c0,3.4,3.07,6.24,6.8,6.24h22.67a1.54,1.54,0,0,1,1.63,1.45v10.37a1.55,1.55,0,0,1-1.63,1.46H426.58v-4.08H416.47v7.88c0,3.4,3.07,6.24,6.8,6.24H451c3.72,0,6.79-2.84,6.79-6.24V103.88c0-3.4-3.07-6.24-6.79-6.24H428.29a1.55,1.55,0,0,1-1.62-1.45V85.82a1.55,1.55,0,0,1,1.62-1.46h19.37v4.1h10.11V82.11h0V80.56Z"/><path class="cls-4" d="M285,107.69l-6.16-18.22-6.16,18.22Zm3.39,10H269.3L264.84,131H253.91l19.84-56.69H284L303.8,131H292.87l-4.46-13.28Z"/><path class="cls-4" d="M285,107.69l-6.16-18.22-6.16,18.22Zm3.39,10H269.3L264.84,131H253.91l19.84-56.69H284L303.8,131H292.87l-4.46-13.28Z"/><polygon class="cls-4" points="406.35 84.29 390.94 84.29 390.94 131.01 380.83 131.01 380.83 84.29 365.42 84.29 365.42 74.34 406.35 74.34 406.35 84.29 406.35 84.29"/><polygon class="cls-4" points="406.35 84.29 390.94 84.29 390.94 131.01 380.83 131.01 380.83 84.29 365.42 84.29 365.42 74.34 406.35 74.34 406.35 84.29 406.35 84.29"/><path class="cls-4" d="M346.09,97.64c0,1.13-.49,1.62-1.62,1.62H325.19V84.36h19.28a1.55,1.55,0,0,1,1.62,1.46V97.64Zm9.12-23.32h-41.3V131h10.21v-21.7h19.27c1.14,0,1.62.48,1.62,1.61V131h10.2V109.64a6.21,6.21,0,0,0-.12-1.24L351,104.28l4.12-4.13a6,6,0,0,0,.12-1.21V74.32Z"/><path class="cls-4" d="M346.09,97.64c0,1.13-.49,1.62-1.62,1.62H325.19V84.36h19.28a1.55,1.55,0,0,1,1.62,1.46V97.64Zm9.12-23.32h-41.3V131h10.21v-21.7h19.27c1.14,0,1.62.48,1.62,1.61V131h10.2V109.64a6.21,6.21,0,0,0-.12-1.24L351,104.28l4.12-4.13a6,6,0,0,0,.12-1.21V74.32Z"/><polygon class="cls-4" points="217.9 84.27 202.49 84.27 202.49 130.99 192.38 130.99 192.38 84.27 176.97 84.27 176.97 74.32 217.9 74.32 217.9 84.27 217.9 84.27"/><polygon class="cls-4" points="217.9 84.27 202.49 84.27 202.49 130.99 192.38 130.99 192.38 84.27 176.97 84.27 176.97 74.32 217.9 74.32 217.9 84.27 217.9 84.27"/><path class="cls-4" d="M131.75,80.56c0-3.4-3.08-6.24-6.8-6.24H97.25c-3.72,0-6.81,2.84-6.81,6.24v20.89c0,3.4,3.09,6.24,6.81,6.24h22.68a1.53,1.53,0,0,1,1.61,1.45v10.37a1.54,1.54,0,0,1-1.61,1.46H100.56v-4.08H90.45V121h0v3.8c0,3.4,3.09,6.24,6.81,6.24H125c3.72,0,6.8-2.84,6.8-6.24V103.88c0-3.4-3.08-6.24-6.8-6.24H102.27a1.55,1.55,0,0,1-1.62-1.45V85.82a1.55,1.55,0,0,1,1.62-1.46h19.37v4.1h10.11v-7.9Z"/><path class="cls-4" d="M131.75,80.56c0-3.4-3.08-6.24-6.8-6.24H97.25c-3.72,0-6.81,2.84-6.81,6.24v20.89c0,3.4,3.09,6.24,6.81,6.24h22.68a1.53,1.53,0,0,1,1.61,1.45v10.37a1.54,1.54,0,0,1-1.61,1.46H100.56v-4.08H90.45V121h0v3.8c0,3.4,3.09,6.24,6.81,6.24H125c3.72,0,6.8-2.84,6.8-6.24V103.88c0-3.4-3.08-6.24-6.8-6.24H102.27a1.55,1.55,0,0,1-1.62-1.45V85.82a1.55,1.55,0,0,1,1.62-1.46h19.37v4.1h10.11v-7.9Z"/><polygon class="cls-5" points="163.28 94.55 161.26 94.55 161.26 114.77 163.28 114.77 163.28 94.55 163.28 94.55"/><polygon class="cls-5" points="172.38 103.64 152.15 103.64 152.15 105.68 172.38 105.68 172.38 103.64 172.38 103.64"/><polygon class="cls-5" points="152.15 103.64 161.26 103.64 161.26 94.55 163.28 94.55 163.28 103.64 172.38 103.64 172.38 105.68 163.28 105.68 163.28 114.77 161.26 114.77 161.26 105.68 152.15 105.68 152.15 103.64 152.15 103.64"/><polygon class="cls-5" points="233.64 94.55 231.62 94.55 231.62 114.77 233.64 114.77 233.64 94.55 233.64 94.55"/><polygon class="cls-5" points="242.74 103.64 222.52 103.64 222.52 105.68 242.74 105.68 242.74 103.64 242.74 103.64"/><polygon class="cls-5" points="222.52 103.64 231.62 103.64 231.62 94.55 233.64 94.55 233.64 103.64 242.74 103.64 242.74 105.68 233.64 105.68 233.64 114.77 231.62 114.77 231.62 105.68 222.52 105.68 222.52 103.64 222.52 103.64"/><polygon class="cls-5" points="380.19 173.21 385.4 173.21 385.4 168.01 386.55 168.01 386.55 173.21 391.76 173.21 391.76 174.37 386.55 174.37 386.55 179.57 385.4 179.57 385.4 174.37 380.19 174.37 380.19 173.21 380.19 173.21"/><polygon class="cls-5" points="196.81 173.21 202.02 173.21 202.02 168.01 203.18 168.01 203.18 173.21 208.38 173.21 208.38 174.37 203.18 174.37 203.18 179.57 202.02 179.57 202.02 174.37 196.81 174.37 196.81 173.21 196.81 173.21"/><path class="cls-5" d="M428.23,164.75v8.05l-1.1,1.43,1.1,1.43v7.17H425.5v-6.77a.51.51,0,0,0-.52-.51h-5.89v7.28h-2.74V164.75ZM425,167.39h-5.89v5.52H425a.53.53,0,0,0,.52-.51v-4.5a.53.53,0,0,0-.52-.51Z"/></svg>