<?xml version="1.0" encoding="utf-8"?>
<!-- Generator: Adobe Illustrator 26.3.1, SVG Export Plug-In . SVG Version: 6.00 Build 0)  -->
<svg version="1.1" id="EN" xmlns="http://www.w3.org/2000/svg" xmlns:xlink="http://www.w3.org/1999/xlink" x="0px" y="0px"
	 viewBox="0 0 1138.7 253.3" style="enable-background:new 0 0 1138.7 253.3;" xml:space="preserve">
<style type="text/css">
	.st0{fill:#FFFFFF;}
	.st1{fill-rule:evenodd;clip-rule:evenodd;fill:#FFFFFF;}
</style>
<path class="st0" d="M836.7,109.2c-0.1-0.4,0.2-0.7,0.6-0.8c0.1,0,0.1,0,0.2,0h14c0.4,0,0.7,0.2,0.7,0.6c0,0,0,0.1,0,0.1v2.3
	c0,0.5-0.2,0.7-0.8,0.7h-10.4v6.5h9.2c0.5,0,0.8,0.2,0.8,0.7v2.3c0,0.5-0.2,0.7-0.8,0.7h-9.2v7.5h10.6c0.5,0,0.7,0.2,0.7,0.7v2.3
	c0,0.5-0.2,0.7-0.7,0.7h-14.2c-0.5,0-0.8-0.2-0.8-0.7V109.2z"/>
<path class="st0" d="M871.5,133.7h-2.7c-0.6,0-0.7-0.3-0.7-0.7v-1.2H868c-1.9,1.3-4.1,2.1-6.4,2.3c-5.1,0-5.6-3-5.6-7v-11.2
	c0-0.5,0.2-0.8,0.7-0.8h2.8c0.5,0,0.7,0.3,0.7,0.8v10.7c0,2.3,0.5,3.7,2.8,3.7c1.6,0,4.1-1.2,5.1-1.7v-12.7c0-0.5,0.2-0.8,0.7-0.8
	h2.7c0.5,0,0.7,0.3,0.7,0.8V133C872.3,133.5,872.1,133.7,871.5,133.7z"/>
<path class="st0" d="M881.2,133c0,0.5-0.2,0.7-0.7,0.7h-2.7c-0.5,0-0.7-0.2-0.7-0.7v-17.1c0-0.5,0.2-0.8,0.7-0.8h2.7
	c0.4-0.1,0.7,0.2,0.8,0.5c0,0.1,0,0.1,0,0.2v1.7l0.1,0.1c1.7-1.3,3.6-2.2,5.6-2.7c0.5-0.1,0.8,0,0.9,0.6l0.3,2.6
	c0,0.5,0.1,0.8-0.7,0.9c-2.1,0.4-4.2,1-6.2,1.8L881.2,133z"/>
<path class="st0" d="M897.9,134c-7.6,0-8.1-5.6-8.1-9.9c0-3.6,0.8-9.4,8.1-9.4s8.4,4.9,8.4,9.4C906.3,128.4,905.8,134,897.9,134z
	 M897.9,118.3c-3.2,0-4,2.1-4,6s0.7,6,3.9,6c3.5,0,4.1-1.9,4.1-6S901.4,118.4,897.9,118.3L897.9,118.3z"/>
<path class="st0" d="M918.9,134.1c-1.6,0-3.2-0.3-4.8-0.8l0,0v6.8c0,0.4-0.1,0.8-0.7,0.8h-2.7c-0.6,0-0.7-0.3-0.7-0.8v-24.1
	c0-0.5,0.2-0.8,0.7-0.8h2.7c0.5,0,0.7,0.3,0.7,0.8v1.1l0.1,0.1c1.7-1.3,3.8-2.1,6-2.3c5,0,6.3,3.8,6.3,9.5
	C926.5,130.5,924.9,134.1,918.9,134.1z M919.2,118.6c-1.8,0.2-3.5,0.8-5.1,1.7v9.5c1.4,0.4,2.9,0.6,4.4,0.6c2.7,0,3.7-1.4,3.7-6.2
	S921.2,118.6,919.2,118.6z"/>
<path class="st0" d="M933.8,125.6c0.1,3.8,1.5,4.9,4.6,4.9c1.4,0,3.5-0.3,4.9-0.4c0.7-0.1,0.9-0.1,1,0.6l0.2,1.3
	c0.1,0.6,0,0.9-0.7,1.2c-2,0.6-4,0.9-6.1,0.9c-7.2,0-8.3-4.6-8.3-9.6c0-3.7,0.7-9.8,8.1-9.8c6.8,0,8,4.4,8.1,8.5
	c0,1.4-0.3,2.3-1.9,2.3L933.8,125.6z M933.8,122.7h7.5c0-2.3-0.6-4.6-3.8-4.6C934.7,118.2,934,119.9,933.8,122.7L933.8,122.7z"/>
<path class="st0" d="M960.9,131.6c-2,1.5-4.5,2.4-7,2.5c-4,0-5.2-2.2-5.2-5.4c0-4.4,2.4-6.3,7.1-6.3h4.9v-1c0-2.3-0.8-3.1-4-3.1
	c-1.2,0-3.6,0.2-5.2,0.3c-0.8,0.1-1,0.1-1.1-0.4l-0.3-1.4c-0.1-0.5,0-0.8,0.9-1.1c2.1-0.6,4.3-0.8,6.4-0.8c6.6,0,7.4,2.7,7.4,7v7.3
	c0,1.6,0.2,1.6,1.4,1.8c0.6,0,0.7,0.1,0.7,0.6v1.6c0,0.4-0.3,0.7-0.9,0.8c-0.6,0.1-1.2,0.2-1.8,0.2
	C962.4,133.9,961.3,133.4,960.9,131.6L960.9,131.6z M960.7,125.2H956c-1.9,0-3.1,0.7-3.1,3.2c0,1.7,0.6,2.2,2.3,2.2
	c1.9-0.2,3.8-0.8,5.4-1.8L960.7,125.2z"/>
<path class="st0" d="M985,133.7h-2.7c-0.5,0-0.7-0.2-0.7-0.7v-10.7c0-2.2-0.5-3.7-2.7-3.7c-1.5,0-4.2,1.2-5.2,1.7V133
	c0,0.5-0.2,0.7-0.7,0.7h-2.7c-0.5,0-0.7-0.2-0.7-0.7v-17.1c0-0.5,0.2-0.8,0.7-0.8h2.7c0.5,0,0.7,0.3,0.7,0.8v1.1c0,0,0.1,0,0.1,0
	c1.9-1.3,4.1-2.1,6.4-2.3c5.1,0,5.6,3.4,5.6,7.2v11C985.7,133.5,985.6,133.7,985,133.7z"/>
<path class="st0" d="M846.9,148.2c2.4,0,4.7,0.3,7,1.1c0.6,0.3,0.8,0.6,0.7,1.2l-0.3,1.6c-0.1,0.4-0.3,0.6-1,0.6
	c-2-0.3-4.1-0.5-6.1-0.5c-5.2,0-5.9,4.2-5.9,9.1s1,8.9,5.9,8.9c2,0,4.1-0.2,6.1-0.5c0.7-0.1,0.9,0.1,1,0.6l0.3,1.4
	c0.2,0.5-0.1,1-0.5,1.2c0,0-0.1,0-0.1,0c-2.3,0.8-4.6,1.1-7,1.1c-8.5,0-10.3-6.3-10.3-12.7S838.3,148.2,846.9,148.2z"/>
<path class="st0" d="M865.5,174c-7.6,0-8.1-5.6-8.1-9.9c0-3.6,0.8-9.4,8.1-9.4s8.4,4.9,8.4,9.4C873.9,168.4,873.3,174,865.5,174z
	 M865.5,158.3c-3.2,0-4,2.1-4,6s0.7,6,3.9,6c3.5,0,4.2-1.9,4.2-6S869,158.4,865.5,158.3L865.5,158.3z"/>
<path class="st0" d="M904.1,173.7h-2.7c-0.5,0-0.7-0.2-0.7-0.7v-10.8c0-2.8-0.7-3.6-2.6-3.6c-1.4,0-3.7,1.1-4.9,1.7
	c0,0.4,0,1.1,0,1.9V173c0,0.5-0.2,0.7-0.7,0.7h-2.8c-0.5,0-0.7-0.2-0.7-0.7v-11c0-2.3-0.6-3.4-2.5-3.4c-1.7,0.2-3.4,0.8-4.9,1.7V173
	c0,0.5-0.2,0.7-0.7,0.7h-2.7c-0.5,0-0.7-0.2-0.7-0.7v-17.1c0-0.5,0.2-0.8,0.7-0.8h2.8c0.4-0.1,0.7,0.2,0.8,0.5c0,0.1,0,0.1,0,0.2
	v1.1l0,0c1.6-1.3,3.6-2,5.7-2.2c2.2,0,4,0.5,5.2,2.7c1.9-1.6,4.2-2.5,6.7-2.7c5,0,5.5,3.3,5.5,7.1V173
	C904.8,173.5,904.7,173.7,904.1,173.7z"/>
<path class="st0" d="M935.4,173.7h-2.7c-0.5,0-0.7-0.2-0.7-0.7v-10.8c0-2.8-0.7-3.6-2.6-3.6c-1.4,0-3.7,1.1-4.9,1.7
	c0,0.4,0,1.1,0,1.9V173c0,0.5-0.2,0.7-0.7,0.7H921c-0.5,0-0.7-0.2-0.7-0.7v-11c0-2.3-0.6-3.4-2.5-3.4c-1.7,0.2-3.4,0.8-4.9,1.7V173
	c0,0.5-0.2,0.7-0.7,0.7h-2.7c-0.5,0-0.7-0.2-0.7-0.7v-17.1c0-0.5,0.2-0.8,0.7-0.8h2.7c0.4-0.1,0.7,0.2,0.8,0.5c0,0.1,0,0.1,0,0.2
	v1.1l0,0c1.6-1.3,3.6-2,5.7-2.2c2.2,0,4,0.5,5.2,2.7c1.9-1.6,4.2-2.5,6.7-2.7c5,0,5.5,3.3,5.5,7.1V173
	C936.1,173.5,936,173.7,935.4,173.7z"/>
<path class="st0" d="M942.9,152.4c-2,0-2.2-1.1-2.2-2.2s0.4-2.2,2.2-2.2s2.2,0.9,2.2,2.2S944.8,152.4,942.9,152.4z M944.9,173
	c0,0.4-0.2,0.7-0.7,0.7h-2.7c-0.5,0-0.8-0.2-0.8-0.7v-17.2c0-0.5,0.2-0.7,0.8-0.7h2.7c0.5,0,0.7,0.3,0.7,0.7V173z"/>
<path class="st0" d="M955.8,174c-2,0-4-0.2-5.9-0.8c-0.8-0.3-0.9-0.6-0.8-1.2l0.3-1.3c0.1-0.6,0.4-0.6,1-0.6
	c1.8,0.3,3.6,0.4,5.4,0.5c2.4,0,3.4-0.6,3.4-2.2c0-1.7-0.7-2.1-3-2.5c-3.7-0.5-7-1.3-7-5.5c0-3.8,2.9-5.7,7.1-5.7
	c2,0,3.9,0.3,5.8,0.8c0.6,0.3,0.9,0.6,0.8,1.1l-0.3,1.4c-0.1,0.5-0.3,0.6-1,0.5c-1.6-0.2-3.8-0.4-5.2-0.4c-2.4,0-3,0.7-3,2.1
	s0.9,1.7,3.2,2.1c3.6,0.5,6.9,1.3,6.9,5.8S959.8,174,955.8,174z"/>
<path class="st0" d="M973.3,174c-2,0-4-0.2-5.9-0.8c-0.8-0.3-0.9-0.6-0.8-1.2l0.3-1.3c0.1-0.6,0.4-0.6,1-0.6
	c1.8,0.3,3.6,0.4,5.4,0.5c2.4,0,3.4-0.6,3.4-2.2c0-1.7-0.6-2.1-3-2.5c-3.7-0.5-7-1.3-7-5.5c0-3.8,2.9-5.7,7.1-5.7
	c2,0,3.9,0.3,5.8,0.8c0.7,0.3,0.9,0.6,0.8,1.1l-0.3,1.4c-0.1,0.5-0.3,0.6-1,0.5c-1.6-0.2-3.8-0.4-5.2-0.4c-2.4,0-3,0.7-3,2.1
	s0.9,1.7,3.2,2.1c3.6,0.5,6.9,1.3,6.9,5.8S977.2,174,973.3,174z"/>
<path class="st0" d="M987.2,152.4c-2,0-2.2-1.1-2.2-2.2s0.4-2.2,2.2-2.2s2.2,0.9,2.2,2.2S989.1,152.4,987.2,152.4z M989.2,173
	c0,0.4-0.2,0.7-0.7,0.7h-2.7c-0.5,0-0.8-0.2-0.8-0.7v-17.2c0-0.5,0.2-0.7,0.8-0.7h2.7c0.5,0,0.7,0.3,0.7,0.7V173z"/>
<path class="st0" d="M1001.6,174c-7.6,0-8.1-5.6-8.1-9.9c0-3.6,0.8-9.4,8.1-9.4s8.4,4.9,8.4,9.4C1010,168.4,1009.5,174,1001.6,174z
	 M1001.6,158.3c-3.2,0-4,2.1-4,6s0.7,6,3.9,6c3.5,0,4.1-1.9,4.1-6S1005.1,158.4,1001.6,158.3L1001.6,158.3z"/>
<path class="st0" d="M1029.1,173.7h-2.7c-0.5,0-0.7-0.2-0.7-0.7v-10.7c0-2.2-0.5-3.7-2.7-3.7c-1.5,0-4.2,1.2-5.2,1.7V173
	c0,0.5-0.2,0.7-0.7,0.7h-2.7c-0.5,0-0.7-0.2-0.7-0.7v-17.1c0-0.5,0.2-0.8,0.7-0.8h2.7c0.5,0,0.7,0.3,0.7,0.8v1.1c0,0,0.1,0,0.1,0
	c1.9-1.3,4.1-2.1,6.4-2.3c5.1,0,5.6,3.4,5.6,7.2v11C1029.8,173.5,1029.7,173.7,1029.1,173.7z"/>
<polygon class="st0" points="1053.8,173.7 1053.8,99.4 1047.3,99.4 1047.3,173.7 1053.8,173.7 "/>
<path class="st0" d="M740,43c0,0,23.5,37.3,27.7,44.2s9.3,12.2,26.6,15.9s24.9,5.4,24.9,5.4v1.3c0,0-11-2.3-25.2-5.5
	s-20-4.2-26.5-13.2c-5.4-7.5-27.6-39.3-27.6-39.3V43z"/>
<path class="st0" d="M740,85.6c0,0,21.4,22.4,27.6,28.8c6.5,6.8,14.9,9.3,26.6,11.4c11.1,2,25.1,4.3,25.1,4.3v1.3
	c0,0-13.1-2.2-25.1-4.2c-11.7-2-19.9-3.1-26.6-9.3c-6-5.5-27.5-25.6-27.5-25.6L740,85.6z"/>
<path class="st0" d="M740,95.7c0,0,20.3,18.8,27.5,25.3c6.6,5.9,12,7.8,26.6,10.4s25,4.2,25,4.2v1.3c0,0-13.2-2.2-25.1-4.1
	s-19.5-2.6-26.6-8.4c-8.2-6.7-27.5-22.6-27.5-22.6L740,95.7z"/>
<path class="st0" d="M740,106.4c0,0,23.2,18.4,27.5,21.6s10.1,7,26.7,9.4s25,3.6,25,3.6v1.4c0,0-15-2.2-25-3.4s-17.7-1.8-26.6-7.8
	c-8.7-5.8-27.6-19.1-27.6-19.1L740,106.4z"/>
<path class="st0" d="M740,116.8c0,0,23.3,15.5,27.7,17.9s9.6,6.4,26.6,8.6s25,3.1,25,3.1v1.3l-25-2.7c-11-1.2-18.5-2.8-26.6-7.3
	S740,122,740,122V116.8z"/>
<path class="st0" d="M740,127.1c0,0,20.6,11.2,27.5,14.7c7.8,3.9,14.5,5.8,26.6,7.2c11.9,1.4,25,2.8,25,2.8v1.2c0,0-12.1-1.3-25-2.5
	s-17.4-1.8-26.6-5.9C759.3,141,740,132,740,132V127.1z"/>
<path class="st0" d="M740,137.6c0,0,16.2,7,27.7,11.5c11.2,4.5,19.8,4.8,26.6,5.6c3,0.3,24.9,2.6,24.9,2.6v1.3c0,0-13.1-1.1-25-2.1
	s-17-1.5-26.6-4.7s-27.6-9.5-27.6-9.5L740,137.6z"/>
<path class="st0" d="M740,148.2c0,0,16.4,5.1,27.6,8c8.7,2.3,17.6,3.8,26.6,4.5c5.2,0.4,25,2,25,2v1.2c0,0-11.3-0.8-25-1.8
	c-11.1-0.8-20.1-1.6-26.6-3.1c-7.3-1.6-27.5-6.4-27.5-6.4L740,148.2z"/>
<path class="st0" d="M740,158.7c0,0,13.4,2.3,27.6,4.7c10.6,1.8,25,2.9,26.6,2.9s25,1.7,25,1.7v1.3c0,0-15-0.8-25-1.3
	c-10.4-0.6-20.8-1.2-26.6-1.8c-13.2-1.4-27.5-3.2-27.5-3.2V158.7z"/>
<path class="st0" d="M740,169.6c0,0,21.2,0.8,27.6,0.9s51.6,2,51.6,2v1.2H740V169.6z"/>
<path class="st0" d="M794.2,108.9c-19.2-4.1-23.5-11.1-26.7-15.5S740,53.7,740,53.7v8c1,1.2,21.7,28.4,27.5,35.9
	c6.6,8.4,16.8,10.4,26.6,12.5s25,5,25,5v-1.1C819.2,113.9,799.1,109.9,794.2,108.9z"/>
<path class="st0" d="M794.2,114.5c-15.7-3.1-22.1-8-26.7-14.1S740,64.3,740,64.3v7.6c1,1.1,21.8,25.9,27.5,32.3
	c6.5,7.5,15.7,9.4,26.7,11.5s25,4.7,25,4.7v-1.1C819.2,119.2,803.3,116.2,794.2,114.5z"/>
<path class="st0" d="M794.2,120.3c-16.3-3.2-19.7-5.8-26.6-13.4c-4.3-4.8-26.6-31-27.5-32.1v7c0,0,20.8,22.2,27.5,28.7
	c8.8,8.6,17,9.2,26.7,11s25,4.6,25,4.6v-1.2C819.2,124.8,800.7,121.6,794.2,120.3z"/>
<g>
	<path class="st0" d="M554.3,113.7v5.1l33.1-3.1c6.2-0.6,13.1-1.2,20.1-1.8v-3.8c-6.8,0.4-13.6,0.9-20.4,1.3L554.3,113.7z"/>
	<path class="st0" d="M607.5,147.4c-17.7,0.1-35.3,0.2-53.2,0.4v5.2c17.1-0.6,35.1-1.2,53.2-1.8V147.4z"/>
	<polygon class="st0" points="554.3,146.1 607.5,143.8 607.5,140.1 554.3,141.1 	"/>
	<path class="st0" d="M684.6,77v-1.8c-3.7,4-7.6,7.7-11.7,11.2c-5,4-8.8,6.9-14.8,9.3c-1.7,0.7-3.4,1.2-5.2,1.7h7.2
		c4.9-2.4,9.7-6,14.3-9.8C678,84.3,681.4,80.7,684.6,77z"/>
	<polygon class="st0" points="554.3,134 554.3,139.1 607.5,136.3 607.5,132.6 	"/>
	<path class="st0" d="M669.9,97.4h4.3c3.7-2.9,7.2-6.2,10.4-9.6v-1.8c-4.2,4.1-6.6,6.5-11.2,9.5C672.3,96.1,671.1,96.8,669.9,97.4z"
		/>
	<path class="st0" d="M635,80.7c3.1-0.5,6.2-1.2,9.2-2c6.2-1.7,12.1-4.4,17.4-8c5-3.3,9.6-8.2,14.2-13.6c3.2-3.9,6.1-7.9,8.8-12.1
		v-2c-3.1,4.6-6.5,9.1-10.1,13.2c-4.1,4.7-8.9,8.9-14.2,12.3c-5.1,3.3-10.8,5.8-16.8,7.2c-3,0.7-6,1.3-9,1.7
		c-2.2,0.3-4.4,0.6-6.6,0.8l-73.7,7.9l0,5.1C554.3,91.3,632.8,81.1,635,80.7z"/>
	<path class="st0" d="M607.5,162.6c-17.6-0.3-35.3-0.6-53.2-0.9v5.1c17.2-0.1,35.2-0.2,53.2-0.4V162.6z"/>
	<polygon class="st0" points="607.5,170 554.3,168.6 554.3,173.7 607.5,173.7 	"/>
	<path class="st0" d="M659.6,78c-5.2,3-10.9,5.1-16.9,6.2c-2.7,0.5-5.6,1-8.9,1.4c-2,0.2-3.9,0.4-5.9,0.6l-3.2,0.3
		c-24.1,2.2-48,4.5-70.4,6.7v5.1c22.6-2.7,46.7-5.6,70.7-8.4l3.2-0.4c2-0.2,3.9-0.4,5.9-0.7c3.4-0.5,6.4-1,9.2-1.6
		c6.2-1.3,12.1-3.7,17.5-6.9c5.1-3.1,9.5-7.3,14.3-12.6c3.4-3.9,6.5-8,9.5-12.2v-1.9c-3.2,4.5-6.8,8.8-10.6,12.8
		C669.8,71,664.9,74.9,659.6,78z"/>
	<path class="st0" d="M554.3,105l53.2-5.7v-2h18.2l7.3-0.8c3.4-0.4,6.3-0.8,9-1.4c6.1-1.1,12-3,17.6-5.8c5.2-2.7,10.5-7.1,15.3-11.8
		c3.5-3.6,6.8-7.4,9.8-11.5v-1.7c-3.4,4.4-7.2,8.5-11.2,12.3c-4.4,4.2-9.4,7.7-14.9,10.3c-5.4,2.5-11.1,4.3-17,5.2
		c-2.7,0.4-5.6,0.8-8.9,1.1l-78.3,6.5V105z"/>
	<polygon class="st0" points="554.3,111.8 607.5,106.6 607.5,102.8 554.3,106.6 	"/>
	<path class="st0" d="M554.3,125.6c17.9-1.4,35.6-2.8,53.2-4.1v-3.8c-17.1,0.8-34.4,1.8-53.2,2.8V125.6z"/>
	<path class="st0" d="M554.3,159.9l31.3-0.8c7-0.2,14.4-0.4,21.9-0.5v-3.7c-7.5,0-14.9,0-22-0.1h-31.2V159.9z"/>
	<path class="st0" d="M554.3,132.5c17.9-1.2,35.5-2.4,53.2-3.6v-3.8c-17.5,0.7-35.2,1.5-53.2,2.2V132.5z"/>
</g>
<path class="st0" d="M609.5,99.4v74.4h112.1V99.4H609.5z M687.7,118.2l1.2,3.7h4l-3.2,2.4l1.2,3.8l-3.2-2.3l-3.2,2.3l1.3-3.8
	l-3.2-2.4h4L687.7,118.2z M677.1,112.6l1.2-3.7l1.2,3.7h4l-3.2,2.4l1.2,3.8l-3.2-2.4l-3.2,2.4l1.3-3.8l-3.2-2.4H677.1z M651.5,112.6
	l1.2-3.7l1.2,3.7h4l-3.2,2.4l1.2,3.8l-3.2-2.3l-3.2,2.3l1.2-3.8l-3.2-2.4H651.5z M642.5,122l1.2-3.7l1.2,3.7h4l-3.2,2.4l1.2,3.8
	l-3.2-2.3l-3.2,2.3l1.2-3.8l-3.2-2.4H642.5z M635.1,134.6h4l1.2-3.7l1.2,3.7h4l-3.2,2.4l1.2,3.8l-3.2-2.3l-3.2,2.3l1.3-3.8
	L635.1,134.6z M643.7,151.4l-3.2,2.3l1.2-3.8l-3.2-2.4h4l1.2-3.7l1.2,3.7h4l-3.2,2.4l1.2,3.8L643.7,151.4z M656.1,163l-3.2-2.3
	l-3.2,2.3l1.3-3.8l-3.2-2.4h4l1.2-3.7l1.2,3.7h4l-3.2,2.4L656.1,163z M664.4,109.2l1.2-3.8l1.2,3.8h4l-3.2,2.5l1.2,4l-3.2-2.4
	l-3.2,2.4l1.3-4l-3.2-2.5H664.4z M668.9,166.3l-3.2-2.3l-3.2,2.3l1.3-3.8l-3.2-2.4h4l1.2-3.7l1.2,3.7h4l-3.2,2.4L668.9,166.3z
	 M681.5,162.9l-3.2-2.3l-3.2,2.3l1.3-3.8l-3.2-2.4h4l1.2-3.7l1.2,3.7h4l-3.2,2.4L681.5,162.9z M690.9,153.7l-3.2-2.4l-3.2,2.4
	l1.3-3.8l-3.2-2.4h4l1.2-3.7l1.2,3.7h4l-3.2,2.4L690.9,153.7z M694.4,140.7l-3.2-2.3l-3.2,2.3l1.2-3.8l-3.2-2.4h4l1.2-3.7l1.2,3.7h4
	l-3.2,2.4L694.4,140.7z"/>
<path class="st0" d="M100.4,164.8h-8.2c-1,0-1.8,0.7-1.9,1.7v6.9c0.1,1,0.9,1.7,1.9,1.7H99c0.3,0,0.5,0.2,0.5,0.5v4.1
	c0,0.3-0.2,0.5-0.5,0.5h-5.4c-0.3,0-0.5-0.2-0.5-0.5v-1.3h-2.7v2.7c0.1,1,0.9,1.7,1.9,1.7h8.2c1,0,1.8-0.7,1.9-1.7v-6.9
	c-0.1-1-0.9-1.7-1.9-1.7h-6.8c-0.3,0-0.5-0.2-0.5-0.5v-4.1c0-0.3,0.2-0.5,0.5-0.5h5.4c0.3,0,0.5,0.2,0.5,0.5v1.3h2.7v-2.7
	C102.2,165.5,101.4,164.7,100.4,164.8L100.4,164.8z"/>
<path class="st0" d="M116.2,164.8H108c-1,0-1.8,0.7-1.8,1.7v14.7c0.1,1,0.9,1.7,1.8,1.7h8.2c1,0,1.8-0.7,1.9-1.7v-2.7h-2.7v1.3
	c0,0.3-0.2,0.5-0.5,0.5h-5.4c-0.3,0-0.5-0.2-0.5-0.5v-11.8c0-0.3,0.2-0.5,0.5-0.5h5.4c0.3,0,0.5,0.2,0.5,0.5v1.3h2.7v-2.7
	C118,165.5,117.1,164.7,116.2,164.8L116.2,164.8z"/>
<polygon class="st0" points="121.6,182.8 124.3,182.8 124.3,164.8 121.6,164.8 121.6,182.8 "/>
<polygon class="st0" points="140.1,167.4 140.1,164.8 128.2,164.8 128.2,182.8 140.1,182.8 140.1,180.2 130.9,180.2 130.9,175.1 
	137.3,175.1 137.3,172.5 130.9,172.5 130.9,167.4 140.1,167.4 "/>
<polygon class="st0" points="153,164.8 153,177.8 146.6,164.8 143.6,164.8 143.6,182.8 146.3,182.8 146.3,170 152.6,182.8 
	155.7,182.8 155.7,164.8 153,164.8 "/>
<path class="st0" d="M169.6,164.8h-8.2c-1,0-1.8,0.7-1.9,1.7v14.7c0.1,1,0.9,1.7,1.9,1.7h8.2c1,0,1.8-0.7,1.9-1.7v-2.7h-2.7v1.3
	c0,0.3-0.2,0.5-0.5,0.5h-5.4c-0.3,0-0.5-0.2-0.5-0.5v-11.8c0-0.3,0.2-0.5,0.5-0.5h5.4c0.3,0,0.5,0.2,0.5,0.5v1.3h2.7v-2.7
	C171.4,165.5,170.6,164.7,169.6,164.8L169.6,164.8z"/>
<polygon class="st0" points="186.8,167.4 186.8,164.8 175,164.8 175,182.8 186.8,182.8 186.8,180.2 177.7,180.2 177.7,175.1 
	184.1,175.1 184.1,172.5 177.7,172.5 177.7,167.4 186.8,167.4 "/>
<polygon class="st0" points="229.6,164.8 217.7,164.8 217.7,167.4 222.3,167.4 222.3,182.8 225,182.8 225,167.4 229.6,167.4 
	229.6,164.8 "/>
<polygon class="st0" points="244.4,167.4 244.4,164.8 232.5,164.8 232.5,182.8 244.4,182.8 244.4,180.2 235.2,180.2 235.2,175.1 
	241.6,175.1 241.6,172.5 235.2,172.5 235.2,167.4 244.4,167.4 "/>
<path class="st0" d="M257.9,164.8h-8.2c-1,0-1.8,0.7-1.9,1.7v14.7c0.1,1,0.9,1.7,1.9,1.7h8.2c1,0,1.8-0.7,1.9-1.7v-2.7H257v1.3
	c0,0.3-0.2,0.5-0.5,0.5h-5.4c-0.3,0-0.5-0.2-0.5-0.5v-11.8c0-0.3,0.2-0.5,0.5-0.5h5.4c0.3,0,0.5,0.2,0.5,0.5v1.3h2.7v-2.7
	C259.7,165.5,258.9,164.7,257.9,164.8L257.9,164.8z"/>
<polygon class="st0" points="272.7,164.8 272.7,172.5 266.3,172.5 266.3,164.8 263.5,164.8 263.5,182.8 266.3,182.8 266.3,175.1 
	272.7,175.1 272.7,182.8 275.4,182.8 275.4,164.8 272.7,164.8 "/>
<polygon class="st0" points="288.7,164.8 288.7,177.8 282.3,164.8 279.3,164.8 279.3,182.8 282,182.8 282,170 288.3,182.8 
	291.4,182.8 291.4,164.8 288.7,164.8 "/>
<path class="st0" d="M305.3,164.8h-8.2c-1,0-1.8,0.7-1.9,1.7v14.7c0.1,1,0.9,1.7,1.9,1.7h8.2c1,0,1.8-0.7,1.9-1.7v-14.7
	C307.1,165.5,306.3,164.7,305.3,164.8z M304.4,179.7c0,0.3-0.2,0.5-0.5,0.5h-5.4c-0.3,0-0.5-0.2-0.5-0.5v-11.8
	c0-0.3,0.2-0.5,0.5-0.5h5.4c0.3,0,0.5,0.2,0.5,0.5V179.7z"/>
<polygon class="st0" points="314,180.2 314,164.8 311.3,164.8 311.3,182.8 323.1,182.8 323.1,180.2 314,180.2 "/>
<path class="st0" d="M336.3,164.8h-8.2c-1,0-1.8,0.7-1.9,1.7v14.7c0.1,1,0.9,1.7,1.9,1.7h8.2c1,0,1.8-0.7,1.9-1.7v-14.7
	C338.1,165.5,337.3,164.7,336.3,164.8z M335.4,179.7c0,0.3-0.2,0.5-0.5,0.5h-5.4c-0.3,0-0.5-0.2-0.5-0.5v-11.8
	c0-0.3,0.2-0.5,0.5-0.5h5.4c0.3,0,0.5,0.2,0.5,0.5V179.7z"/>
<path class="st0" d="M352,164.8h-8.2c-1,0-1.8,0.7-1.9,1.7v14.7c0.1,1,0.9,1.7,1.9,1.7h8.2c1,0,1.8-0.7,1.9-1.7v-8.6h-5.8v2.6h3.1
	v4.6c0,0.3-0.2,0.5-0.5,0.5h-5.4c-0.3,0-0.5-0.2-0.5-0.5v-11.8c0-0.3,0.2-0.5,0.5-0.5h5.4c0.3,0,0.5,0.2,0.5,0.5v1.3h2.7v-2.7
	C353.9,165.5,353,164.7,352,164.8L352,164.8z"/>
<polygon class="st0" points="370.3,164.8 367.4,164.8 363.7,173.8 360,164.8 357,164.8 362.3,177.2 362.3,182.8 365,182.8 
	365,177.2 370.3,164.8 "/>
<path class="st0" d="M410.7,182.8h2.8l-5.5-18.1h-2.7l-5.4,18.1h2.8l1.4-4.7h5.2L410.7,182.8L410.7,182.8z M404.8,175.4l1.9-6.4
	l1.8,6.4H404.8z"/>
<polygon class="st0" points="443,164.8 431.1,164.8 431.1,167.4 435.7,167.4 435.7,182.8 438.4,182.8 438.4,167.4 443,167.4 
	443,164.8 "/>
<path class="st0" d="M455.9,164.8h-8.2c-1,0-1.8,0.7-1.9,1.7v6.9c0.1,1,0.9,1.7,1.9,1.7h6.8c0.3,0,0.5,0.2,0.5,0.5v4.1
	c0,0.3-0.2,0.5-0.5,0.5h-5.4c-0.3,0-0.5-0.2-0.5-0.5v-1.3h-2.7v2.7c0.1,1,0.9,1.7,1.9,1.7h8.2c1,0,1.8-0.7,1.9-1.7v-6.9
	c-0.1-1-0.9-1.7-1.9-1.7h-6.8c-0.3,0-0.5-0.2-0.5-0.5v-4.1c0-0.3,0.2-0.5,0.5-0.5h5.4c0.3,0,0.5,0.2,0.5,0.5v1.3h2.7v-2.7
	C457.7,165.5,456.9,164.7,455.9,164.8L455.9,164.8z"/>
<path class="st0" d="M457.8,80.6c0-3.4-3.1-6.2-6.8-6.2h-27.7c-3.7,0-6.8,2.8-6.8,6.2v20.9c0,3.4,3.1,6.2,6.8,6.2h22.7
	c0.8-0.1,1.6,0.6,1.6,1.4c0,0,0,0,0,0v10.4c0,0.9-0.8,1.5-1.6,1.5h-19.4v-4.1h-10.1v7.9c0,3.4,3.1,6.2,6.8,6.2H451
	c3.7,0,6.8-2.8,6.8-6.2v-20.9c0-3.4-3.1-6.2-6.8-6.2h-22.7c-0.8,0-1.6-0.6-1.6-1.4V85.8c0-0.8,0.8-1.5,1.6-1.5h19.4v4.1h10.1v-6.3
	l0,0L457.8,80.6L457.8,80.6z"/>
<path class="st0" d="M457.8,80.6c0-3.4-3.1-6.2-6.8-6.2h-27.7c-3.7,0-6.8,2.8-6.8,6.2v20.9c0,3.4,3.1,6.2,6.8,6.2h22.7
	c0.8-0.1,1.6,0.6,1.6,1.4c0,0,0,0,0,0v10.4c0,0.9-0.8,1.5-1.6,1.5h-19.4v-4.1h-10.1v7.9c0,3.4,3.1,6.2,6.8,6.2H451
	c3.7,0,6.8-2.8,6.8-6.2v-20.9c0-3.4-3.1-6.2-6.8-6.2h-22.7c-0.8,0-1.6-0.6-1.6-1.4V85.8c0-0.8,0.8-1.5,1.6-1.5h19.4v4.1h10.1v-6.3
	l0,0L457.8,80.6L457.8,80.6z"/>
<path class="st0" d="M285,107.7l-6.2-18.2l-6.2,18.2H285z M288.4,117.7h-19.1l-4.5,13.3h-10.9l19.8-56.7H284l19.8,56.7h-10.9
	L288.4,117.7L288.4,117.7z"/>
<path class="st0" d="M285,107.7l-6.2-18.2l-6.2,18.2H285z M288.4,117.7h-19.1l-4.5,13.3h-10.9l19.8-56.7H284l19.8,56.7h-10.9
	L288.4,117.7L288.4,117.7z"/>
<polygon class="st0" points="406.4,84.3 390.9,84.3 390.9,131 380.8,131 380.8,84.3 365.4,84.3 365.4,74.3 406.4,74.3 406.4,84.3 
	"/>
<polygon class="st0" points="406.4,84.3 390.9,84.3 390.9,131 380.8,131 380.8,84.3 365.4,84.3 365.4,74.3 406.4,74.3 406.4,84.3 
	"/>
<path class="st0" d="M346.1,97.6c0,1.1-0.5,1.6-1.6,1.6h-19.3V84.4h19.3c0.8,0,1.6,0.6,1.6,1.5V97.6z M355.2,74.3h-41.3V131h10.2
	v-21.7h19.3c1.1,0,1.6,0.5,1.6,1.6V131h10.2v-21.4c0-0.4,0-0.8-0.1-1.2l-4.1-4.1l4.1-4.1c0.1-0.4,0.1-0.8,0.1-1.2L355.2,74.3
	L355.2,74.3z"/>
<path class="st0" d="M346.1,97.6c0,1.1-0.5,1.6-1.6,1.6h-19.3V84.4h19.3c0.8,0,1.6,0.6,1.6,1.5V97.6z M355.2,74.3h-41.3V131h10.2
	v-21.7h19.3c1.1,0,1.6,0.5,1.6,1.6V131h10.2v-21.4c0-0.4,0-0.8-0.1-1.2l-4.1-4.1l4.1-4.1c0.1-0.4,0.1-0.8,0.1-1.2L355.2,74.3
	L355.2,74.3z"/>
<polygon class="st0" points="217.9,84.3 202.5,84.3 202.5,131 192.4,131 192.4,84.3 177,84.3 177,74.3 217.9,74.3 217.9,84.3 "/>
<polygon class="st0" points="217.9,84.3 202.5,84.3 202.5,131 192.4,131 192.4,84.3 177,84.3 177,74.3 217.9,74.3 217.9,84.3 "/>
<path class="st0" d="M131.8,80.6c0-3.4-3.1-6.2-6.8-6.2H97.2c-3.7,0-6.8,2.8-6.8,6.2v20.9c0,3.4,3.1,6.2,6.8,6.2h22.7
	c0.8,0,1.6,0.6,1.6,1.4c0,0,0,0,0,0v10.4c0,0.8-0.8,1.5-1.6,1.5h-19.4v-4.1H90.4v4.1l0,0v3.8c0,3.4,3.1,6.2,6.8,6.2H125
	c3.7,0,6.8-2.8,6.8-6.2v-20.9c0-3.4-3.1-6.2-6.8-6.2h-22.7c-0.8,0-1.6-0.6-1.6-1.4V85.8c0-0.8,0.8-1.5,1.6-1.5h19.4v4.1h10.1V80.6z"
	/>
<path class="st0" d="M131.8,80.6c0-3.4-3.1-6.2-6.8-6.2H97.2c-3.7,0-6.8,2.8-6.8,6.2v20.9c0,3.4,3.1,6.2,6.8,6.2h22.7
	c0.8,0,1.6,0.6,1.6,1.4c0,0,0,0,0,0v10.4c0,0.8-0.8,1.5-1.6,1.5h-19.4v-4.1H90.4v4.1l0,0v3.8c0,3.4,3.1,6.2,6.8,6.2H125
	c3.7,0,6.8-2.8,6.8-6.2v-20.9c0-3.4-3.1-6.2-6.8-6.2h-22.7c-0.8,0-1.6-0.6-1.6-1.4V85.8c0-0.8,0.8-1.5,1.6-1.5h19.4v4.1h10.1V80.6z"
	/>
<polygon class="st1" points="163.3,94.6 161.3,94.6 161.3,114.8 163.3,114.8 163.3,94.6 "/>
<polygon class="st1" points="172.4,103.6 152.1,103.6 152.1,105.7 172.4,105.7 172.4,103.6 "/>
<polygon class="st1" points="152.1,103.6 161.3,103.6 161.3,94.6 163.3,94.6 163.3,103.6 172.4,103.6 172.4,105.7 163.3,105.7 
	163.3,114.8 161.3,114.8 161.3,105.7 152.1,105.7 152.1,103.6 "/>
<polygon class="st1" points="233.6,94.6 231.6,94.6 231.6,114.8 233.6,114.8 233.6,94.6 "/>
<polygon class="st1" points="242.7,103.6 222.5,103.6 222.5,105.7 242.7,105.7 242.7,103.6 "/>
<polygon class="st1" points="222.5,103.6 231.6,103.6 231.6,94.6 233.6,94.6 233.6,103.6 242.7,103.6 242.7,105.7 233.6,105.7 
	233.6,114.8 231.6,114.8 231.6,105.7 222.5,105.7 222.5,103.6 "/>
<path class="st0" d="M457.8,80.6c0-3.4-3.1-6.2-6.8-6.2h-27.7c-3.7,0-6.8,2.8-6.8,6.2v20.9c0,3.4,3.1,6.2,6.8,6.2h22.7
	c0.8-0.1,1.6,0.6,1.6,1.4c0,0,0,0,0,0v10.4c0,0.9-0.8,1.5-1.6,1.5h-19.4v-4.1h-10.1v7.9c0,3.4,3.1,6.2,6.8,6.2H451
	c3.7,0,6.8-2.8,6.8-6.2v-20.9c0-3.4-3.1-6.2-6.8-6.2h-22.7c-0.8,0-1.6-0.6-1.6-1.4V85.8c0-0.8,0.8-1.5,1.6-1.5h19.4v4.1h10.1v-6.3
	l0,0L457.8,80.6L457.8,80.6z"/>
<path class="st0" d="M457.8,80.6c0-3.4-3.1-6.2-6.8-6.2h-27.7c-3.7,0-6.8,2.8-6.8,6.2v20.9c0,3.4,3.1,6.2,6.8,6.2h22.7
	c0.8-0.1,1.6,0.6,1.6,1.4c0,0,0,0,0,0v10.4c0,0.9-0.8,1.5-1.6,1.5h-19.4v-4.1h-10.1v7.9c0,3.4,3.1,6.2,6.8,6.2H451
	c3.7,0,6.8-2.8,6.8-6.2v-20.9c0-3.4-3.1-6.2-6.8-6.2h-22.7c-0.8,0-1.6-0.6-1.6-1.4V85.8c0-0.8,0.8-1.5,1.6-1.5h19.4v4.1h10.1v-6.3
	l0,0L457.8,80.6L457.8,80.6z"/>
<path class="st0" d="M285,107.7l-6.2-18.2l-6.2,18.2H285z M288.4,117.7h-19.1l-4.5,13.3h-10.9l19.8-56.7H284l19.8,56.7h-10.9
	L288.4,117.7L288.4,117.7z"/>
<path class="st0" d="M285,107.7l-6.2-18.2l-6.2,18.2H285z M288.4,117.7h-19.1l-4.5,13.3h-10.9l19.8-56.7H284l19.8,56.7h-10.9
	L288.4,117.7L288.4,117.7z"/>
<polygon class="st0" points="406.4,84.3 390.9,84.3 390.9,131 380.8,131 380.8,84.3 365.4,84.3 365.4,74.3 406.4,74.3 406.4,84.3 
	"/>
<polygon class="st0" points="406.4,84.3 390.9,84.3 390.9,131 380.8,131 380.8,84.3 365.4,84.3 365.4,74.3 406.4,74.3 406.4,84.3 
	"/>
<path class="st0" d="M346.1,97.6c0,1.1-0.5,1.6-1.6,1.6h-19.3V84.4h19.3c0.8,0,1.6,0.6,1.6,1.5V97.6z M355.2,74.3h-41.3V131h10.2
	v-21.7h19.3c1.1,0,1.6,0.5,1.6,1.6V131h10.2v-21.4c0-0.4,0-0.8-0.1-1.2l-4.1-4.1l4.1-4.1c0.1-0.4,0.1-0.8,0.1-1.2L355.2,74.3
	L355.2,74.3z"/>
<path class="st0" d="M346.1,97.6c0,1.1-0.5,1.6-1.6,1.6h-19.3V84.4h19.3c0.8,0,1.6,0.6,1.6,1.5V97.6z M355.2,74.3h-41.3V131h10.2
	v-21.7h19.3c1.1,0,1.6,0.5,1.6,1.6V131h10.2v-21.4c0-0.4,0-0.8-0.1-1.2l-4.1-4.1l4.1-4.1c0.1-0.4,0.1-0.8,0.1-1.2L355.2,74.3
	L355.2,74.3z"/>
<polygon class="st0" points="217.9,84.3 202.5,84.3 202.5,131 192.4,131 192.4,84.3 177,84.3 177,74.3 217.9,74.3 217.9,84.3 "/>
<polygon class="st0" points="217.9,84.3 202.5,84.3 202.5,131 192.4,131 192.4,84.3 177,84.3 177,74.3 217.9,74.3 217.9,84.3 "/>
<path class="st0" d="M131.8,80.6c0-3.4-3.1-6.2-6.8-6.2H97.2c-3.7,0-6.8,2.8-6.8,6.2v20.9c0,3.4,3.1,6.2,6.8,6.2h22.7
	c0.8,0,1.6,0.6,1.6,1.4c0,0,0,0,0,0v10.4c0,0.8-0.8,1.5-1.6,1.5h-19.4v-4.1H90.4v4.1l0,0v3.8c0,3.4,3.1,6.2,6.8,6.2H125
	c3.7,0,6.8-2.8,6.8-6.2v-20.9c0-3.4-3.1-6.2-6.8-6.2h-22.7c-0.8,0-1.6-0.6-1.6-1.4V85.8c0-0.8,0.8-1.5,1.6-1.5h19.4v4.1h10.1V80.6z"
	/>
<path class="st0" d="M131.8,80.6c0-3.4-3.1-6.2-6.8-6.2H97.2c-3.7,0-6.8,2.8-6.8,6.2v20.9c0,3.4,3.1,6.2,6.8,6.2h22.7
	c0.8,0,1.6,0.6,1.6,1.4c0,0,0,0,0,0v10.4c0,0.8-0.8,1.5-1.6,1.5h-19.4v-4.1H90.4v4.1l0,0v3.8c0,3.4,3.1,6.2,6.8,6.2H125
	c3.7,0,6.8-2.8,6.8-6.2v-20.9c0-3.4-3.1-6.2-6.8-6.2h-22.7c-0.8,0-1.6-0.6-1.6-1.4V85.8c0-0.8,0.8-1.5,1.6-1.5h19.4v4.1h10.1V80.6z"
	/>
<polygon class="st1" points="163.3,94.6 161.3,94.6 161.3,114.8 163.3,114.8 163.3,94.6 "/>
<polygon class="st1" points="172.4,103.6 152.1,103.6 152.1,105.7 172.4,105.7 172.4,103.6 "/>
<polygon class="st1" points="152.1,103.6 161.3,103.6 161.3,94.6 163.3,94.6 163.3,103.6 172.4,103.6 172.4,105.7 163.3,105.7 
	163.3,114.8 161.3,114.8 161.3,105.7 152.1,105.7 152.1,103.6 "/>
<polygon class="st1" points="233.6,94.6 231.6,94.6 231.6,114.8 233.6,114.8 233.6,94.6 "/>
<polygon class="st1" points="242.7,103.6 222.5,103.6 222.5,105.7 242.7,105.7 242.7,103.6 "/>
<polygon class="st1" points="222.5,103.6 231.6,103.6 231.6,94.6 233.6,94.6 233.6,103.6 242.7,103.6 242.7,105.7 233.6,105.7 
	233.6,114.8 231.6,114.8 231.6,105.7 222.5,105.7 222.5,103.6 "/>
<polygon class="st1" points="380.2,173.2 385.4,173.2 385.4,168 386.5,168 386.5,173.2 391.8,173.2 391.8,174.4 386.5,174.4 
	386.5,179.6 385.4,179.6 385.4,174.4 380.2,174.4 380.2,173.2 "/>
<polygon class="st1" points="196.8,173.2 202,173.2 202,168 203.2,168 203.2,173.2 208.4,173.2 208.4,174.4 203.2,174.4 
	203.2,179.6 202,179.6 202,174.4 196.8,174.4 196.8,173.2 "/>
<path class="st1" d="M428.2,164.8v8.1l-1.1,1.4l1.1,1.4v7.2h-2.7v-6.8c0-0.3-0.2-0.5-0.5-0.5c0,0,0,0,0,0h-5.9v7.3h-2.7v-18.1H428.2
	z M425,167.4h-5.9v5.5h5.9c0.3,0,0.5-0.2,0.5-0.5v-4.5C425.5,167.6,425.3,167.4,425,167.4L425,167.4z"/>
</svg>
