<svg id="Camada_1" data-name="Camada 1" xmlns="http://www.w3.org/2000/svg" viewBox="0 0 1553 925"><path d="M225.72,449.64,282,328.42H297.2l56.25,121.22H335.81l-16.52-36.38H258.77l-16.34,36.38Zm38.8-49.38h49l-23.95-52.9h-1.11Z"/><path d="M381.84,449.64V328.42h66.83c15.6,0,26.36,4.27,34,12.25a34,34,0,0,1,9.28,23.77c0,16.33-11.14,29.14-28.22,33.78l29.89,51.42H475.22l-27.85-49.38H398v49.38ZM398,342.72V386h54.77c13.36,0,23.2-9.84,23.2-21.72a20.58,20.58,0,0,0-5.75-14.11c-5.94-5.94-13.18-7.42-21.54-7.42Z"/><path d="M511.6,328.42H621.87v14.3h-47V449.64H558.75V342.72H511.6Z"/><path d="M736.4,354c-7.24-6.5-22.64-15-44.92-15-15.6,0-31.56,5.57-31.56,20.8,0,15.59,20.05,16.33,39.73,17.44,21.16,1.49,55.32,3.53,55.32,36,0,28.22-25.06,39.54-54.21,39.54-30.82,0-50.49-12.81-63.67-24.88l9.84-11.13c10.21,9.46,27.1,22.27,54.2,22.27,20.61,0,37.69-7.42,37.69-23.76,0-18.19-18.57-21-39.17-22.46-26.18-1.67-55.88-3.53-55.88-31.56,0-27.66,26.55-36,48.27-36,25.06,0,44.74,10,54,17.63Z"/><path d="M787.64,449.64V328.42h16.15v48.27h74.44V328.42h16V449.64h-16V391H803.79v58.66Z"/><path d="M923,449.64l56.25-121.22h15.22l56.25,121.22h-17.63l-16.53-36.38H956l-16.34,36.38Zm38.8-49.38h49l-23.95-52.9h-1.11Z"/><path d="M1079.08,449.64V328.42h66.83c15.59,0,26.36,4.27,34,12.25a34.06,34.06,0,0,1,9.29,23.77c0,16.33-11.14,29.14-28.22,33.78l29.89,51.42h-18.38l-27.85-49.38h-49.38v49.38Zm16.15-106.92V386H1150c13.37,0,23.21-9.84,23.21-21.72a20.62,20.62,0,0,0-5.75-14.11c-6-5.94-13.19-7.42-21.54-7.42Z"/><path d="M1290.7,393h-49v42.33h85.59v14.29H1225.54V328.42H1323v14.3h-81.32v36h49Z"/><path d="M232.9,523.44a4.22,4.22,0,0,1,4.42,4,4.16,4.16,0,0,1-4.42,4,4.08,4.08,0,0,1-4.33-4A4.14,4.14,0,0,1,232.9,523.44Zm-3.25,57.39V541.77h6.58v39.06Z"/><path d="M251.14,580.83V551.68a46.14,46.14,0,0,0-1.08-9.91h6.08a24.16,24.16,0,0,1,.92,6c3.25-3.58,7.49-7.24,14.41-7.24,8.58,0,15.07,5.74,15.07,13.82v26.49h-6.66V554.34c0-4.41-3.92-8-9.41-8-5.75,0-9.83,3.5-12.66,6.66v27.82Z"/><path d="M295.62,541.77h7.67V529.94H310v11.83h11.74v5.16H310v24.24c0,3.66,2.41,5.24,5.41,5.24a17.8,17.8,0,0,0,6.5-1.24l.83,5.16c-1.58,1.08-5.58,1.92-8.58,1.92-4.91,0-10.82-2.75-10.82-11.08V546.93h-7.67Z"/><path d="M368.84,574.67A28,28,0,0,1,349.77,582c-12.66,0-20.08-9.17-20.08-20.33,0-11.82,8.67-21.15,20.66-21.15,9.24,0,19.57,5.74,19.66,19.65a15.4,15.4,0,0,1-.09,2H336.36c.25,7.67,5.16,13.91,14.07,13.91a19.74,19.74,0,0,0,14-5.74Zm-32-17.74h25.82c-.17-7.33-6.75-10.83-12.66-10.83C343,546.1,338.36,550.85,336.86,556.93Z"/><path d="M382.09,580.83v-58.3h6.66v58.3Z"/><path d="M404.66,580.83v-58.3h6.66v58.3Z"/><path d="M430,523.44a4.22,4.22,0,0,1,4.42,4,4.16,4.16,0,0,1-4.42,4,4.08,4.08,0,0,1-4.33-4A4.14,4.14,0,0,1,430,523.44Zm-3.25,57.39V541.77h6.58v39.06Z"/><path d="M478.21,575.58c-3.92,4.08-8.67,6.42-13.49,6.42-10.58,0-19.49-8.17-19.49-20.58,0-12.66,9-20.9,19.9-20.9,6.66,0,11.83,4.58,13.66,7.24a22,22,0,0,1,.83-6.08h6.17a41.45,41.45,0,0,0-.92,10v31.65c0,9-6.66,16.4-19.57,16.4-8.91,0-14.24-3-17.74-6.74l4-3.92c2.74,2.84,6.83,5.09,13.74,5.09,8.49,0,12.91-4.75,12.91-10.83Zm0-5.41V552.51c-1.42-1.75-5.91-6.16-12.49-6.16-7.17,0-13.17,5.91-13.17,15.07,0,8.92,5.75,14.75,12.75,14.75C469.88,576.17,474.46,573.83,478.21,570.17Z"/><path d="M535.85,574.67A28,28,0,0,1,516.78,582c-12.66,0-20.07-9.17-20.07-20.33,0-11.82,8.66-21.15,20.65-21.15,9.24,0,19.57,5.74,19.66,19.65a15.4,15.4,0,0,1-.09,2H503.37c.25,7.67,5.16,13.91,14.07,13.91a19.76,19.76,0,0,0,14-5.74Zm-32-17.74h25.82c-.17-7.33-6.75-10.83-12.66-10.83C510,546.1,505.37,550.85,503.87,556.93Z"/><path d="M548.68,580.83V551.68a46.14,46.14,0,0,0-1.08-9.91h6.08a24.16,24.16,0,0,1,.92,6c3.24-3.58,7.49-7.24,14.4-7.24,8.58,0,15.08,5.74,15.08,13.82v26.49h-6.66V554.34c0-4.41-3.92-8-9.42-8-5.74,0-9.82,3.5-12.65,6.66v27.82Z"/><path d="M628.81,551.43a17.73,17.73,0,0,0-12.41-5.08c-7.5,0-13.66,5.83-13.66,14.82s6.41,14.91,14.16,14.91a17.92,17.92,0,0,0,12.83-5.74l4.49,4.16a24.12,24.12,0,0,1-17.9,7.5c-11.25,0-20.91-8.17-20.91-20.83,0-12.41,9.5-20.65,21-20.65a25,25,0,0,1,16.91,6.41Z"/><path d="M680.87,574.67A28,28,0,0,1,661.8,582c-12.66,0-20.07-9.17-20.07-20.33,0-11.82,8.66-21.15,20.65-21.15,9.25,0,19.58,5.74,19.66,19.65a17.31,17.31,0,0,1-.08,2H648.39c.25,7.67,5.16,13.91,14.08,13.91a19.74,19.74,0,0,0,14-5.74Zm-32-17.74h25.82c-.17-7.33-6.75-10.83-12.66-10.83C655.05,546.1,650.39,550.85,648.89,556.93Z"/><path d="M690.54,591.74c3.83-1.08,10.16-4.5,10.16-9.25a1.86,1.86,0,0,0-1-1.91,8.94,8.94,0,0,1-2.16.33c-2.92,0-5.17-1.91-5.17-4.5s2.25-4.49,5.17-4.49a8.59,8.59,0,0,1,8.41,8.83c0,9.16-7.75,13.32-13.41,15.24Z"/><path d="M731.36,541.77H739V529.94h6.66v11.83h11.74v5.16H745.68v24.24c0,3.66,2.42,5.24,5.41,5.24a17.8,17.8,0,0,0,6.5-1.24l.83,5.16c-1.58,1.08-5.58,1.92-8.58,1.92-4.91,0-10.82-2.75-10.82-11.08V546.93h-7.66Z"/><path d="M804.57,574.67A28,28,0,0,1,785.5,582c-12.66,0-20.08-9.17-20.08-20.33,0-11.82,8.66-21.15,20.66-21.15,9.24,0,19.57,5.74,19.65,19.65a17.31,17.31,0,0,1-.08,2H772.09c.25,7.67,5.16,13.91,14.07,13.91a19.74,19.74,0,0,0,14-5.74Zm-32-17.74h25.82c-.17-7.33-6.75-10.83-12.66-10.83C778.75,546.1,774.08,550.85,772.59,556.93Z"/><path d="M847.72,551.43a17.73,17.73,0,0,0-12.41-5.08c-7.5,0-13.66,5.83-13.66,14.82s6.41,14.91,14.16,14.91a17.9,17.9,0,0,0,12.82-5.74l4.5,4.16a24.13,24.13,0,0,1-17.91,7.5c-11.24,0-20.9-8.17-20.9-20.83,0-12.41,9.49-20.65,21-20.65a24.92,24.92,0,0,1,16.9,6.41Z"/><path d="M863.63,580.83v-58.3h6.58V547c2.83-3.09,7.41-6.5,13.24-6.5,9.33,0,15.57,5.74,15.57,13.82v26.49h-6.66V554.34c0-4.41-3.91-8-9.49-8S873,549.93,870.21,553v27.82Z"/><path d="M913.36,580.83V551.68a46.17,46.17,0,0,0-1.09-9.91h6.08a23.27,23.27,0,0,1,.92,6c3.25-3.58,7.5-7.24,14.41-7.24,8.58,0,15.07,5.74,15.07,13.82v26.49h-6.66V554.34c0-4.41-3.91-8-9.41-8-5.75,0-9.83,3.5-12.66,6.66v27.82Z"/><path d="M981,540.52c12.25,0,21,9.16,21,20.65,0,11.66-8.74,20.83-21,20.83a20.39,20.39,0,0,1-20.9-20.83C960.09,549.68,968.84,540.52,981,540.52Zm0,35.89c8.5,0,14.16-6.91,14.16-15.24,0-8.08-5.66-15.07-14.16-15.07s-14,7-14,15.07C967,569.5,972.58,576.41,981,576.41Z"/><path d="M1014.32,580.83v-58.3H1021v58.3Z"/><path d="M1054.29,540.52c12.25,0,21,9.16,21,20.65,0,11.66-8.74,20.83-21,20.83a20.39,20.39,0,0,1-20.9-20.83C1033.39,549.68,1042.14,540.52,1054.29,540.52Zm0,35.89c8.5,0,14.16-6.91,14.16-15.24,0-8.08-5.66-15.07-14.16-15.07s-14,7-14,15.07C1040.3,569.5,1045.88,576.41,1054.29,576.41Z"/><path d="M1117.18,575.58c-3.91,4.08-8.66,6.42-13.49,6.42-10.58,0-19.49-8.17-19.49-20.58,0-12.66,9-20.9,19.91-20.9,6.66,0,11.82,4.58,13.66,7.24a22,22,0,0,1,.83-6.08h6.16a41.93,41.93,0,0,0-.91,10v31.65c0,9-6.67,16.4-19.57,16.4-8.92,0-14.25-3-17.75-6.74l4-3.92c2.75,2.84,6.83,5.09,13.75,5.09,8.49,0,12.9-4.75,12.9-10.83Zm0-5.41V552.51c-1.41-1.75-5.91-6.16-12.49-6.16-7.16,0-13.16,5.91-13.16,15.07,0,8.92,5.75,14.75,12.75,14.75C1108.86,576.17,1113.44,573.83,1117.18,570.17Z"/><path d="M1174.66,541.77l-27.32,56.55h-6.83l9.75-19.32-16.74-37.23H1141l12.66,29.9h.33l13.91-29.9Z"/><path d="M1174.92,591.74c3.83-1.08,10.16-4.5,10.16-9.25a1.86,1.86,0,0,0-1-1.91,9,9,0,0,1-2.17.33c-2.91,0-5.16-1.91-5.16-4.5s2.25-4.49,5.16-4.49a8.58,8.58,0,0,1,8.41,8.83c0,9.16-7.74,13.32-13.4,15.24Z"/><path d="M1220.31,545.6a35.32,35.32,0,0,1,18-5.08c8.58,0,17.57,2.91,17.57,11.57v21.66c0,2.08.17,5,1.25,7.08h-6.74a14.68,14.68,0,0,1-1.17-5.5,23.42,23.42,0,0,1-16.24,6.33c-9.58,0-15.57-5.58-15.57-13.41,0-7.08,6.41-12.82,18-12.82,4.84,0,10.75,1.16,13.83,4.08v-5.58c0-5.5-5.25-7.75-11.16-7.75a28.63,28.63,0,0,0-15.32,4.83Zm28.9,24.15v-4.91c-2.25-2.5-7.41-4.17-12.74-4.17-8.83,0-12.33,3.33-12.33,7.58s3.58,7.83,10.16,7.83A21.71,21.71,0,0,0,1249.21,569.75Z"/><path d="M1270.37,580.83V551.68a41.32,41.32,0,0,0-1.16-9.91h6.16a29.17,29.17,0,0,1,.92,6.74c2.66-4,6.16-8,11.91-8,2.41,0,4.74.66,5.91,2l-2.17,6.08a9.66,9.66,0,0,0-5.24-1.58c-4.25,0-7.33,3.83-9.66,7.16v26.65Z"/><path d="M1297.36,541.77H1305V529.94h6.66v11.83h11.74v5.16h-11.74v24.24c0,3.66,2.42,5.24,5.41,5.24a17.85,17.85,0,0,0,6.5-1.24l.83,5.16c-1.58,1.08-5.58,1.92-8.58,1.92-4.91,0-10.82-2.75-10.82-11.08V546.93h-7.67Z"/></svg>