<svg id="Camada_1" data-name="Camada 1" xmlns="http://www.w3.org/2000/svg" viewBox="0 0 1553 539"><path d="M124.52,293.25l22.79-49.12h6.17l22.79,49.12h-7.14l-6.7-14.74H137.91l-6.62,14.74Zm15.72-20H160.1l-9.7-21.44h-.46Z"/><path d="M187.78,293.25V244.13h27.09c6.31,0,10.68,1.73,13.76,5a13.78,13.78,0,0,1,3.76,9.63c0,6.62-4.51,11.81-11.43,13.69l12.11,20.84h-7.45l-11.28-20h-20v20Zm6.55-43.33v17.53h22.19c5.42,0,9.4-4,9.4-8.8a8.36,8.36,0,0,0-2.33-5.72c-2.41-2.41-5.34-3-8.72-3Z"/><path d="M240.37,244.13h44.68v5.79H266v43.33h-6.55V249.92h-19.1Z"/><path d="M331.47,254.51c-2.94-2.63-9.18-6.09-18.21-6.09-6.32,0-12.79,2.25-12.79,8.42,0,6.32,8.13,6.62,16.1,7.07,8.58.61,22.42,1.43,22.42,14.6,0,11.43-10.16,16-22,16a36.5,36.5,0,0,1-25.8-10.08l4-4.51c4.13,3.83,11,9,22,9,8.35,0,15.27-3,15.27-9.63,0-7.38-7.52-8.51-15.87-9.11-10.61-.67-22.64-1.43-22.64-12.79,0-11.21,10.76-14.59,19.56-14.59,10.15,0,18.13,4.06,21.89,7.15Z"/><path d="M352.23,293.25V244.13h6.54v19.56h30.17V244.13h6.47v49.12h-6.47V269.48H358.77v23.77Z"/><path d="M407.07,293.25l22.79-49.12H436l22.8,49.12h-7.15L445,278.51H420.46l-6.62,14.74Zm15.72-20h19.86L433,251.8h-.45Z"/><path d="M470.33,293.25V244.13h27.09c6.32,0,10.68,1.73,13.76,5a13.79,13.79,0,0,1,3.77,9.63c0,6.62-4.52,11.81-11.44,13.69l12.11,20.84h-7.44l-11.29-20h-20v20Zm6.55-43.33v17.53h22.19c5.42,0,9.41-4,9.41-8.8a8.4,8.4,0,0,0-2.33-5.72c-2.41-2.41-5.35-3-8.73-3Z"/><path d="M556.09,270.31H536.23v17.15h34.69v5.79H529.69V244.13h39.5v5.79h-33v14.6h19.86Z"/><path d="M708.51,245.83a2.78,2.78,0,0,1,2.91,2.64,2.74,2.74,0,0,1-2.91,2.63,2.69,2.69,0,0,1-2.86-2.63A2.73,2.73,0,0,1,708.51,245.83Zm-2.14,37.85V257.92h4.34v25.76Z"/><path d="M720.55,283.68V264.45a30.14,30.14,0,0,0-.72-6.53h4a15.59,15.59,0,0,1,.61,3.95c2.14-2.36,4.94-4.78,9.5-4.78,5.66,0,9.94,3.79,9.94,9.12v17.47H739.5V266.21c0-2.91-2.58-5.27-6.21-5.27-3.79,0-6.48,2.3-8.35,4.39v18.35Z"/><path d="M749.88,257.92h5.06v-7.8h4.39v7.8h7.75v3.4h-7.75v16a3.23,3.23,0,0,0,3.57,3.46,11.63,11.63,0,0,0,4.29-.83l.55,3.41a12.57,12.57,0,0,1-5.66,1.26c-3.24,0-7.14-1.81-7.14-7.3v-16h-5.06Z"/><path d="M798.18,279.62a18.48,18.48,0,0,1-12.58,4.83c-8.35,0-13.24-6-13.24-13.4,0-7.81,5.71-14,13.62-14,6.1,0,12.91,3.79,13,13a10.17,10.17,0,0,1-.06,1.32H776.75c.17,5.05,3.41,9.17,9.29,9.17a13,13,0,0,0,9.22-3.79Zm-21.1-11.71h17c-.11-4.83-4.45-7.14-8.35-7.14C781.15,260.77,778.07,263.9,777.08,267.91Z"/><path d="M806.91,283.68V245.23h4.4v38.45Z"/><path d="M821.8,283.68V245.23h4.4v38.45Z"/><path d="M838.51,245.83a2.78,2.78,0,0,1,2.91,2.64,2.74,2.74,0,0,1-2.91,2.63,2.69,2.69,0,0,1-2.86-2.63A2.73,2.73,0,0,1,838.51,245.83Zm-2.15,37.85V257.92h4.34v25.76Z"/><path d="M870.32,280.22a12.54,12.54,0,0,1-8.9,4.23c-7,0-12.86-5.38-12.86-13.57,0-8.35,5.93-13.79,13.13-13.79a11.72,11.72,0,0,1,9,4.78,14.57,14.57,0,0,1,.55-4h4.06a28,28,0,0,0-.6,6.59v20.88c0,5.93-4.39,10.82-12.91,10.82-5.88,0-9.39-2-11.7-4.45l2.64-2.58c1.81,1.87,4.5,3.35,9.06,3.35,5.6,0,8.52-3.13,8.52-7.14Zm0-3.57V265a11.14,11.14,0,0,0-8.24-4.06c-4.73,0-8.69,3.9-8.69,9.94,0,5.88,3.8,9.72,8.41,9.72A12.57,12.57,0,0,0,870.32,276.65Z"/><path d="M908.34,279.62a18.5,18.5,0,0,1-12.58,4.83c-8.35,0-13.24-6-13.24-13.4,0-7.81,5.71-14,13.62-14,6.1,0,12.91,3.79,13,13a10.17,10.17,0,0,1-.06,1.32H886.91c.17,5.05,3.41,9.17,9.29,9.17a13,13,0,0,0,9.23-3.79Zm-21.1-11.71h17c-.11-4.83-4.45-7.14-8.35-7.14C891.31,260.77,888.23,263.9,887.24,267.91Z"/><path d="M916.8,283.68V264.45a30.75,30.75,0,0,0-.71-6.53h4a15.59,15.59,0,0,1,.6,3.95c2.14-2.36,4.95-4.78,9.5-4.78,5.66,0,9.95,3.79,9.95,9.12v17.47h-4.4V266.21c0-2.91-2.58-5.27-6.2-5.27-3.8,0-6.49,2.3-8.35,4.39v18.35Z"/><path d="M969.65,264.29a11.7,11.7,0,0,0-8.18-3.35c-5,0-9,3.84-9,9.78s4.23,9.83,9.34,9.83a11.81,11.81,0,0,0,8.46-3.79l3,2.75a15.9,15.9,0,0,1-11.81,4.94c-7.41,0-13.79-5.38-13.79-13.73,0-8.19,6.27-13.63,13.85-13.63a16.48,16.48,0,0,1,11.15,4.23Z"/><path d="M1004,279.62a18.46,18.46,0,0,1-12.58,4.83c-8.35,0-13.24-6-13.24-13.4,0-7.81,5.72-14,13.63-14,6.09,0,12.91,3.79,13,13a12.19,12.19,0,0,1,0,1.32H982.57c.16,5.05,3.4,9.17,9.28,9.17a13,13,0,0,0,9.23-3.79ZM982.9,267.91h17c-.11-4.83-4.45-7.14-8.35-7.14C987,260.77,983.89,263.9,982.9,267.91Z"/><path d="M1010.37,290.88c2.53-.72,6.7-3,6.7-6.1,0-.66-.27-1.15-.66-1.26a5.94,5.94,0,0,1-1.43.22,3.14,3.14,0,0,1-3.4-3,3.17,3.17,0,0,1,3.4-3,5.67,5.67,0,0,1,5.55,5.83c0,6-5.11,8.79-8.84,10.05Z"/><path d="M1037.29,257.92h5.06v-7.8h4.39v7.8h7.75v3.4h-7.75v16c0,2.42,1.59,3.46,3.57,3.46a11.67,11.67,0,0,0,4.29-.83l.55,3.41a12.61,12.61,0,0,1-5.66,1.26c-3.24,0-7.14-1.81-7.14-7.3v-16h-5.06Z"/><path d="M1085.58,279.62a18.46,18.46,0,0,1-12.58,4.83c-8.35,0-13.24-6-13.24-13.4,0-7.81,5.72-14,13.63-14,6.09,0,12.91,3.79,13,13a12.19,12.19,0,0,1,0,1.32h-22.14c.16,5.05,3.4,9.17,9.28,9.17a13,13,0,0,0,9.23-3.79Zm-21.09-11.71h17c-.11-4.83-4.45-7.14-8.35-7.14C1068.55,260.77,1065.48,263.9,1064.49,267.91Z"/><path d="M1114,264.29a11.7,11.7,0,0,0-8.18-3.35c-4.95,0-9,3.84-9,9.78s4.23,9.83,9.34,9.83a11.79,11.79,0,0,0,8.46-3.79l3,2.75a15.9,15.9,0,0,1-11.81,4.94c-7.41,0-13.79-5.38-13.79-13.73,0-8.19,6.27-13.63,13.85-13.63a16.48,16.48,0,0,1,11.15,4.23Z"/><path d="M1124.54,283.68V245.23h4.34v16.15c1.87-2,4.89-4.29,8.73-4.29,6.16,0,10.28,3.79,10.28,9.12v17.47h-4.4V266.21c0-2.91-2.58-5.27-6.26-5.27s-6.48,2.36-8.35,4.39v18.35Z"/><path d="M1157.34,283.68V264.45a30.14,30.14,0,0,0-.72-6.53h4a16,16,0,0,1,.6,3.95c2.14-2.36,4.94-4.78,9.5-4.78,5.66,0,10,3.79,10,9.12v17.47h-4.4V266.21c0-2.91-2.58-5.27-6.21-5.27s-6.48,2.3-8.34,4.39v18.35Z"/><path d="M1202,257.09a13.68,13.68,0,1,1-13.79,13.63A13.44,13.44,0,0,1,1202,257.09Zm0,23.68c5.61,0,9.34-4.56,9.34-10,0-5.33-3.73-10-9.34-10s-9.23,4.62-9.23,10C1192.72,276.21,1196.4,280.77,1202,280.77Z"/><path d="M1223.93,283.68V245.23h4.39v38.45Z"/><path d="M1250.3,257.09a13.68,13.68,0,1,1-13.79,13.63A13.44,13.44,0,0,1,1250.3,257.09Zm0,23.68c5.61,0,9.34-4.56,9.34-10,0-5.33-3.73-10-9.34-10s-9.23,4.62-9.23,10C1241.07,276.21,1244.75,280.77,1250.3,280.77Z"/><path d="M1291.78,280.22a12.51,12.51,0,0,1-8.9,4.23c-7,0-12.85-5.38-12.85-13.57,0-8.35,5.93-13.79,13.13-13.79a11.74,11.74,0,0,1,9,4.78,14.2,14.2,0,0,1,.55-4h4.06a27.5,27.5,0,0,0-.6,6.59v20.88c0,5.93-4.4,10.82-12.91,10.82-5.88,0-9.4-2-11.7-4.45l2.63-2.58c1.82,1.87,4.51,3.35,9.07,3.35,5.6,0,8.51-3.13,8.51-7.14Zm0-3.57V265a11.12,11.12,0,0,0-8.24-4.06c-4.72,0-8.68,3.9-8.68,9.94,0,5.88,3.79,9.72,8.41,9.72A12.53,12.53,0,0,0,1291.78,276.65Z"/><path d="M1329.69,257.92l-18,37.3h-4.51l6.43-12.75-11-24.55h4.94l8.35,19.72h.22l9.17-19.72Z"/><path d="M1329.86,290.88c2.53-.72,6.71-3,6.71-6.1,0-.66-.28-1.15-.66-1.26a6,6,0,0,1-1.43.22,3.15,3.15,0,0,1-3.41-3,3.18,3.18,0,0,1,3.41-3,5.67,5.67,0,0,1,5.55,5.83c0,6-5.11,8.79-8.85,10.05Z"/><path d="M1359.8,260.44a23.32,23.32,0,0,1,11.87-3.35c5.66,0,11.59,1.92,11.59,7.64V279a10.71,10.71,0,0,0,.83,4.67h-4.45a9.49,9.49,0,0,1-.77-3.63,15.43,15.43,0,0,1-10.71,4.18c-6.32,0-10.28-3.68-10.28-8.84,0-4.67,4.23-8.46,11.87-8.46,3.19,0,7.09.76,9.12,2.69v-3.68c0-3.63-3.46-5.11-7.36-5.11A19,19,0,0,0,1361.4,264Zm19.07,15.93v-3.24c-1.49-1.65-4.89-2.74-8.41-2.74-5.82,0-8.13,2.19-8.13,5s2.37,5.16,6.71,5.16A14.34,14.34,0,0,0,1378.87,276.37Z"/><path d="M1392.83,283.68V264.45a27.11,27.11,0,0,0-.77-6.53h4.06a18.82,18.82,0,0,1,.61,4.45c1.76-2.64,4.06-5.28,7.85-5.28a5.32,5.32,0,0,1,3.9,1.32l-1.43,4a6.36,6.36,0,0,0-3.46-1c-2.8,0-4.83,2.52-6.37,4.72v17.58Z"/><path d="M1410.63,257.92h5v-7.8h4.4v7.8h7.74v3.4h-7.74v16c0,2.42,1.59,3.46,3.57,3.46a11.62,11.62,0,0,0,4.28-.83l.55,3.41a12.54,12.54,0,0,1-5.66,1.26c-3.24,0-7.14-1.81-7.14-7.3v-16h-5Z"/><rect x="604.15" y="266.36" width="66.56" height="3.07"/></svg>