<?xml version="1.0" encoding="utf-8"?>
<!-- Generator: Adobe Illustrator 26.3.1, SVG Export Plug-In . SVG Version: 6.00 Build 0)  -->
<svg version="1.1" id="Layer_1" xmlns="http://www.w3.org/2000/svg" xmlns:xlink="http://www.w3.org/1999/xlink" x="0px" y="0px"
	 viewBox="0 0 600 300" style="enable-background:new 0 0 600 300;" xml:space="preserve">
<style type="text/css">
	.st0{fill:#00FF00;}
</style>
<path class="st0" d="M450.9,31.5c65.3,0,118.2,52.9,118.2,118.2c0,0,0,0,0,0v0.6c0,65.3-52.9,118.2-118.2,118.2c0,0,0,0,0,0H148.3
	c-65.3,0-118.2-52.9-118.2-118.2c0,0,0,0,0,0v-0.6C30.1,84.4,83,31.5,148.3,31.5c0,0,0,0,0,0H450.9 M450.9,0H148.3
	C65.6,0-1.4,67-1.4,149.7c0,0,0,0,0,0v0.6c0,82.7,67,149.7,149.7,149.7h302.5c82.7,0,149.7-67,149.7-149.7v0v-0.6
	C600.6,67,533.6,0,450.9,0C450.9,0,450.9,0,450.9,0z"/>
<path class="st0" d="M240.1,70.1l60.4,159.8h-41l-9.7-28.4h-61.7l-9.5,28.4h-40.1l60.2-159.8H240.1z M239.7,170.8L219.2,110
	l-20.7,60.8H239.7z"/>
<polygon class="st0" points="310.5,125.3 411.5,125.3 376.9,92.1 398.4,70 468.4,140.3 398.4,210.8 376.9,188.7 410.6,156.1 
	341.3,156.1 341.3,230 310.5,230 "/>
</svg>
